<?xml version="1.0" encoding="utf-8" standalone="no"?>
<!DOCTYPE svg PUBLIC "-//W3C//DTD SVG 1.1//EN"
  "http://www.w3.org/Graphics/SVG/1.1/DTD/svg11.dtd">
<svg xmlns:xlink="http://www.w3.org/1999/xlink" width="570.552734pt" height="383.505469pt" viewBox="0 0 570.552734 383.505469" xmlns="http://www.w3.org/2000/svg" version="1.1">
 <metadata>
  <rdf:RDF xmlns:dc="http://purl.org/dc/elements/1.1/" xmlns:cc="http://creativecommons.org/ns#" xmlns:rdf="http://www.w3.org/1999/02/22-rdf-syntax-ns#">
   <cc:Work>
    <dc:type rdf:resource="http://purl.org/dc/dcmitype/StillImage"/>
    <dc:date>2026-04-03T21:30:52.226982</dc:date>
    <dc:format>image/svg+xml</dc:format>
    <dc:creator>
     <cc:Agent>
      <dc:title>Matplotlib v3.7.2, https://matplotlib.org/</dc:title>
     </cc:Agent>
    </dc:creator>
   </cc:Work>
  </rdf:RDF>
 </metadata>
 <defs>
  <style type="text/css">*{stroke-linejoin: round; stroke-linecap: butt}</style>
 </defs>
 <g id="figure_1">
  <g id="patch_1">
   <path d="M -0 383.505469 
L 570.552734 383.505469 
L 570.552734 0 
L -0 0 
z
" style="fill: #ffffff"/>
  </g>
  <g id="axes_1">
   <g id="patch_2">
    <path d="M 53.045 331.905469 
L 551.555 331.905469 
L 551.555 13.965469 
L 53.045 13.965469 
z
" style="fill: #ffffff"/>
   </g>
   <g id="matplotlib.axis_1">
    <g id="xtick_1">
     <g id="line2d_1">
      <path d="M 53.045 331.905469 
L 53.045 13.965469 
" clip-path="url(#p8b99fa45fb)" style="fill: none; stroke-dasharray: 2.96,1.28; stroke-dashoffset: 0; stroke: #b0b0b0; stroke-opacity: 0.2; stroke-width: 0.8"/>
     </g>
     <g id="line2d_2">
      <defs>
       <path id="m32f1c4573d" d="M 0 0 
L 0 -3.5 
" style="stroke: #000000; stroke-width: 0.8"/>
      </defs>
      <g>
       <use xlink:href="#m32f1c4573d" x="53.045" y="331.905469" style="stroke: #000000; stroke-width: 0.8"/>
      </g>
     </g>
     <g id="text_1">
      <!-- 0.0 -->
      <g transform="translate(41.247266 348.936406) scale(0.17 -0.17)">
       <defs>
        <path id="NotoSansCJKjp-Regular-30" d="M 1779 -83 
C 2669 -83 3238 723 3238 2362 
C 3238 3987 2669 4774 1779 4774 
C 883 4774 320 3987 320 2362 
C 320 723 883 -83 1779 -83 
z
M 1779 390 
C 1248 390 883 986 883 2362 
C 883 3731 1248 4314 1779 4314 
C 2310 4314 2675 3731 2675 2362 
C 2675 986 2310 390 1779 390 
z
" transform="scale(0.015625)"/>
        <path id="NotoSansCJKjp-Regular-2e" d="M 890 -83 
C 1120 -83 1312 96 1312 358 
C 1312 627 1120 806 890 806 
C 653 806 467 627 467 358 
C 467 96 653 -83 890 -83 
z
" transform="scale(0.015625)"/>
       </defs>
       <use xlink:href="#NotoSansCJKjp-Regular-30"/>
       <use xlink:href="#NotoSansCJKjp-Regular-2e" x="55.499985"/>
       <use xlink:href="#NotoSansCJKjp-Regular-30" x="83.299973"/>
      </g>
     </g>
    </g>
    <g id="xtick_2">
     <g id="line2d_3">
      <path d="M 152.747 331.905469 
L 152.747 13.965469 
" clip-path="url(#p8b99fa45fb)" style="fill: none; stroke-dasharray: 2.96,1.28; stroke-dashoffset: 0; stroke: #b0b0b0; stroke-opacity: 0.2; stroke-width: 0.8"/>
     </g>
     <g id="line2d_4">
      <g>
       <use xlink:href="#m32f1c4573d" x="152.747" y="331.905469" style="stroke: #000000; stroke-width: 0.8"/>
      </g>
     </g>
     <g id="text_2">
      <!-- 0.2 -->
      <g transform="translate(140.949266 348.936406) scale(0.17 -0.17)">
       <defs>
        <path id="NotoSansCJKjp-Regular-32" d="M 282 0 
L 3232 0 
L 3232 506 
L 1933 506 
C 1696 506 1408 480 1165 461 
C 2266 1504 3008 2458 3008 3398 
C 3008 4230 2477 4774 1638 4774 
C 1043 4774 634 4506 256 4090 
L 595 3757 
C 858 4070 1184 4301 1568 4301 
C 2150 4301 2432 3910 2432 3373 
C 2432 2566 1754 1632 282 346 
L 282 0 
z
" transform="scale(0.015625)"/>
       </defs>
       <use xlink:href="#NotoSansCJKjp-Regular-30"/>
       <use xlink:href="#NotoSansCJKjp-Regular-2e" x="55.499985"/>
       <use xlink:href="#NotoSansCJKjp-Regular-32" x="83.299973"/>
      </g>
     </g>
    </g>
    <g id="xtick_3">
     <g id="line2d_5">
      <path d="M 252.449 331.905469 
L 252.449 13.965469 
" clip-path="url(#p8b99fa45fb)" style="fill: none; stroke-dasharray: 2.96,1.28; stroke-dashoffset: 0; stroke: #b0b0b0; stroke-opacity: 0.2; stroke-width: 0.8"/>
     </g>
     <g id="line2d_6">
      <g>
       <use xlink:href="#m32f1c4573d" x="252.449" y="331.905469" style="stroke: #000000; stroke-width: 0.8"/>
      </g>
     </g>
     <g id="text_3">
      <!-- 0.4 -->
      <g transform="translate(240.651266 348.936406) scale(0.17 -0.17)">
       <defs>
        <path id="NotoSansCJKjp-Regular-34" d="M 2176 0 
L 2726 0 
L 2726 1293 
L 3354 1293 
L 3354 1760 
L 2726 1760 
L 2726 4691 
L 2080 4691 
L 128 1677 
L 128 1293 
L 2176 1293 
L 2176 0 
z
M 2176 1760 
L 736 1760 
L 1805 3360 
C 1939 3590 2067 3827 2182 4051 
L 2208 4051 
C 2195 3814 2176 3430 2176 3200 
L 2176 1760 
z
" transform="scale(0.015625)"/>
       </defs>
       <use xlink:href="#NotoSansCJKjp-Regular-30"/>
       <use xlink:href="#NotoSansCJKjp-Regular-2e" x="55.499985"/>
       <use xlink:href="#NotoSansCJKjp-Regular-34" x="83.299973"/>
      </g>
     </g>
    </g>
    <g id="xtick_4">
     <g id="line2d_7">
      <path d="M 352.151 331.905469 
L 352.151 13.965469 
" clip-path="url(#p8b99fa45fb)" style="fill: none; stroke-dasharray: 2.96,1.28; stroke-dashoffset: 0; stroke: #b0b0b0; stroke-opacity: 0.2; stroke-width: 0.8"/>
     </g>
     <g id="line2d_8">
      <g>
       <use xlink:href="#m32f1c4573d" x="352.151" y="331.905469" style="stroke: #000000; stroke-width: 0.8"/>
      </g>
     </g>
     <g id="text_4">
      <!-- 0.6 -->
      <g transform="translate(340.353266 348.936406) scale(0.17 -0.17)">
       <defs>
        <path id="NotoSansCJKjp-Regular-36" d="M 1926 -83 
C 2656 -83 3277 531 3277 1440 
C 3277 2426 2765 2912 1971 2912 
C 1606 2912 1197 2701 909 2349 
C 934 3802 1466 4294 2118 4294 
C 2400 4294 2682 4154 2861 3936 
L 3194 4294 
C 2931 4576 2579 4774 2093 4774 
C 1184 4774 358 4077 358 2240 
C 358 691 1030 -83 1926 -83 
z
M 922 1882 
C 1229 2317 1587 2477 1875 2477 
C 2445 2477 2720 2074 2720 1440 
C 2720 800 2374 378 1926 378 
C 1338 378 986 909 922 1882 
z
" transform="scale(0.015625)"/>
       </defs>
       <use xlink:href="#NotoSansCJKjp-Regular-30"/>
       <use xlink:href="#NotoSansCJKjp-Regular-2e" x="55.499985"/>
       <use xlink:href="#NotoSansCJKjp-Regular-36" x="83.299973"/>
      </g>
     </g>
    </g>
    <g id="xtick_5">
     <g id="line2d_9">
      <path d="M 451.853 331.905469 
L 451.853 13.965469 
" clip-path="url(#p8b99fa45fb)" style="fill: none; stroke-dasharray: 2.96,1.28; stroke-dashoffset: 0; stroke: #b0b0b0; stroke-opacity: 0.2; stroke-width: 0.8"/>
     </g>
     <g id="line2d_10">
      <g>
       <use xlink:href="#m32f1c4573d" x="451.853" y="331.905469" style="stroke: #000000; stroke-width: 0.8"/>
      </g>
     </g>
     <g id="text_5">
      <!-- 0.8 -->
      <g transform="translate(440.055266 348.936406) scale(0.17 -0.17)">
       <defs>
        <path id="NotoSansCJKjp-Regular-38" d="M 1792 -83 
C 2669 -83 3258 448 3258 1126 
C 3258 1773 2880 2125 2470 2362 
L 2470 2394 
C 2746 2611 3091 3034 3091 3526 
C 3091 4250 2605 4762 1805 4762 
C 1075 4762 518 4282 518 3571 
C 518 3078 813 2726 1152 2490 
L 1152 2464 
C 723 2234 294 1792 294 1165 
C 294 442 922 -83 1792 -83 
z
M 2112 2547 
C 1555 2765 1050 3014 1050 3571 
C 1050 4026 1363 4326 1798 4326 
C 2298 4326 2592 3962 2592 3494 
C 2592 3149 2426 2829 2112 2547 
z
M 1798 352 
C 1235 352 813 717 813 1216 
C 813 1664 1082 2035 1459 2278 
C 2125 2010 2701 1779 2701 1146 
C 2701 678 2342 352 1798 352 
z
" transform="scale(0.015625)"/>
       </defs>
       <use xlink:href="#NotoSansCJKjp-Regular-30"/>
       <use xlink:href="#NotoSansCJKjp-Regular-2e" x="55.499985"/>
       <use xlink:href="#NotoSansCJKjp-Regular-38" x="83.299973"/>
      </g>
     </g>
    </g>
    <g id="xtick_6">
     <g id="line2d_11">
      <path d="M 551.555 331.905469 
L 551.555 13.965469 
" clip-path="url(#p8b99fa45fb)" style="fill: none; stroke-dasharray: 2.96,1.28; stroke-dashoffset: 0; stroke: #b0b0b0; stroke-opacity: 0.2; stroke-width: 0.8"/>
     </g>
     <g id="line2d_12">
      <g>
       <use xlink:href="#m32f1c4573d" x="551.555" y="331.905469" style="stroke: #000000; stroke-width: 0.8"/>
      </g>
     </g>
     <g id="text_6">
      <!-- 1.0 -->
      <g transform="translate(539.757266 348.936406) scale(0.17 -0.17)">
       <defs>
        <path id="NotoSansCJKjp-Regular-31" d="M 563 0 
L 3136 0 
L 3136 486 
L 2195 486 
L 2195 4691 
L 1747 4691 
C 1491 4544 1190 4435 774 4358 
L 774 3987 
L 1613 3987 
L 1613 486 
L 563 486 
L 563 0 
z
" transform="scale(0.015625)"/>
       </defs>
       <use xlink:href="#NotoSansCJKjp-Regular-31"/>
       <use xlink:href="#NotoSansCJKjp-Regular-2e" x="55.499985"/>
       <use xlink:href="#NotoSansCJKjp-Regular-30" x="83.299973"/>
      </g>
     </g>
    </g>
    <g id="text_7">
     <!-- 训练步数（×10^6） -->
     <g transform="translate(214.71 371.953281) scale(0.19 -0.19)">
      <defs>
       <path id="DroidSansFallback-8bad" d="M 1250 5175 
Q 1650 4675 1900 4125 
L 1425 3850 
Q 1200 4400 800 4900 
L 1250 5175 
z
M 325 3325 
L 1625 3325 
L 1625 575 
L 1950 1025 
L 2250 750 
Q 1975 225 1525 -250 
L 1150 75 
L 1150 2875 
L 325 2875 
L 325 3325 
z
M 5375 5200 
L 5875 5200 
L 5875 -575 
L 5375 -575 
L 5375 5200 
z
M 2950 5200 
L 3450 5200 
L 3450 1900 
Q 3450 375 2575 -600 
L 2175 -275 
Q 2950 600 2950 1900 
L 2950 5200 
z
M 4175 4875 
L 4650 4875 
L 4650 -100 
L 4175 -100 
L 4175 4875 
z
" transform="scale(0.015625)"/>
       <path id="DroidSansFallback-7ec3" d="M 2000 4150 
L 2450 3975 
Q 1825 2575 1075 1750 
L 2150 2075 
L 2275 1700 
Q 1475 1375 525 1200 
L 375 1600 
Q 900 2150 1375 2950 
L 525 2825 
L 425 3275 
Q 950 4000 1300 5175 
L 1775 5025 
Q 1450 3925 950 3300 
L 1600 3375 
L 2000 4150 
z
M 2175 950 
L 2275 500 
Q 1475 175 525 -50 
L 325 475 
L 2175 950 
z
M 4000 5175 
L 4475 5075 
L 4275 4350 
L 5975 4350 
L 5975 3875 
L 4100 3875 
L 3900 3350 
L 4875 3350 
L 4875 2050 
L 5900 2050 
L 5900 1625 
L 4875 1625 
L 4875 0 
Q 4875 -550 4375 -550 
L 3725 -500 
L 3600 -25 
L 4250 -75 
Q 4375 -75 4375 75 
L 4375 1625 
L 2775 1625 
L 2675 2050 
L 3150 2875 
L 2625 2875 
L 2625 3350 
L 3375 3350 
L 3575 3875 
L 2575 3875 
L 2575 4350 
L 3750 4350 
L 4000 5175 
z
M 4375 2050 
L 4375 2875 
L 3725 2875 
L 3275 2050 
L 4375 2050 
z
M 5500 1350 
Q 5875 725 6125 25 
L 5625 -200 
Q 5400 550 5075 1150 
L 5500 1350 
z
M 3100 1350 
L 3550 1075 
Q 3150 200 2725 -300 
L 2325 50 
Q 2800 650 3100 1350 
z
" transform="scale(0.015625)"/>
       <path id="DroidSansFallback-6b65" d="M 2950 5200 
L 3450 5200 
L 3450 4425 
L 5400 4425 
L 5400 3950 
L 3450 3950 
L 3450 3175 
L 6000 3175 
L 6000 2700 
L 400 2700 
L 400 3175 
L 1425 3175 
L 1425 4700 
L 1925 4700 
L 1925 3175 
L 2950 3175 
L 2950 5200 
z
M 2950 2375 
L 3450 2375 
L 3450 650 
Q 4375 1200 4975 2000 
L 5475 1800 
Q 4200 -25 825 -700 
L 600 -250 
Q 1975 0 2950 400 
L 2950 2375 
z
M 1875 2225 
L 2300 1975 
Q 1775 1050 1200 525 
L 800 900 
Q 1450 1525 1875 2225 
z
" transform="scale(0.015625)"/>
       <path id="DroidSansFallback-6570" d="M 4275 4125 
L 5950 4125 
L 5950 3650 
L 5675 3650 
Q 5525 1900 4975 1000 
Q 5425 400 6125 -100 
L 5750 -575 
Q 5175 -100 4675 550 
Q 4175 -125 3450 -600 
L 3100 -150 
Q 3850 300 4350 1025 
L 3700 2375 
L 3500 1950 
L 3100 2250 
Q 3725 3575 4000 5175 
L 4500 5025 
L 4275 4125 
z
M 5175 3650 
L 4150 3650 
L 3975 3075 
Q 4275 2175 4650 1525 
Q 4975 2225 5125 3225 
L 5125 3250 
L 5175 3650 
z
M 450 4100 
L 1750 4100 
L 1750 5150 
L 2200 5150 
L 2200 4100 
L 3400 4100 
L 3400 3675 
L 2200 3675 
L 2200 2525 
L 1750 2525 
L 1750 3300 
Q 1325 2700 750 2325 
L 425 2725 
Q 1050 3050 1525 3675 
L 450 3675 
L 450 4100 
z
M 1050 5050 
L 1375 4375 
L 975 4175 
L 675 4875 
L 1050 5050 
z
M 2900 5050 
L 3275 4875 
Q 3050 4450 2800 4225 
L 2475 4525 
Q 2725 4750 2900 5050 
z
M 2725 3450 
L 3175 2825 
L 2800 2600 
Q 2650 2950 2375 3250 
L 2725 3450 
z
M 425 2000 
L 1400 2000 
L 1575 2400 
L 2050 2350 
L 1900 2000 
L 3025 2000 
L 3025 1575 
Q 2725 925 2300 475 
L 3075 0 
L 2775 -450 
L 1925 125 
Q 1400 -325 525 -600 
L 375 -175 
Q 1025 25 1500 350 
L 625 800 
L 1150 1575 
L 425 1575 
L 425 2000 
z
M 1675 1575 
L 1300 1000 
L 1900 700 
Q 2275 1100 2500 1575 
L 1675 1575 
z
" transform="scale(0.015625)"/>
       <path id="DroidSansFallback-ff08" d="M 4100 4575 
L 4700 4575 
Q 3050 3575 3050 1750 
Q 3050 -25 4700 -1000 
L 4100 -1000 
Q 3375 -675 2912 87 
Q 2450 850 2450 1750 
Q 2450 2675 2912 3437 
Q 3375 4200 4100 4575 
z
" transform="scale(0.015625)"/>
       <path id="NotoSansCJKjp-Regular-d7" d="M 4954 346 
L 5261 653 
L 3514 2406 
L 5261 4160 
L 4954 4467 
L 3200 2714 
L 1453 4467 
L 1139 4154 
L 2893 2406 
L 1139 653 
L 1453 346 
L 3200 2099 
L 4954 346 
z
" transform="scale(0.015625)"/>
       <path id="NotoSansCJKjp-Regular-5e" d="M 435 2029 
L 941 2029 
L 1408 3290 
L 1760 4243 
L 1792 4243 
L 2144 3290 
L 2611 2029 
L 3123 2029 
L 2035 4794 
L 1517 4794 
L 435 2029 
z
" transform="scale(0.015625)"/>
       <path id="DroidSansFallback-ff09" d="M 2300 -1000 
L 1700 -1000 
Q 3350 -25 3350 1750 
Q 3350 3575 1700 4575 
L 2300 4575 
Q 3025 4200 3487 3437 
Q 3950 2675 3950 1750 
Q 3950 850 3487 87 
Q 3025 -675 2300 -1000 
z
" transform="scale(0.015625)"/>
      </defs>
      <use xlink:href="#DroidSansFallback-8bad"/>
      <use xlink:href="#DroidSansFallback-7ec3" x="100"/>
      <use xlink:href="#DroidSansFallback-6b65" x="200"/>
      <use xlink:href="#DroidSansFallback-6570" x="300"/>
      <use xlink:href="#DroidSansFallback-ff08" x="400"/>
      <use xlink:href="#NotoSansCJKjp-Regular-d7" x="500"/>
      <use xlink:href="#NotoSansCJKjp-Regular-31" x="599.999985"/>
      <use xlink:href="#NotoSansCJKjp-Regular-30" x="655.499969"/>
      <use xlink:href="#NotoSansCJKjp-Regular-5e" x="710.999954"/>
      <use xlink:href="#NotoSansCJKjp-Regular-36" x="766.499939"/>
      <use xlink:href="#DroidSansFallback-ff09" x="821.999924"/>
     </g>
    </g>
   </g>
   <g id="matplotlib.axis_2">
    <g id="ytick_1">
     <g id="line2d_13">
      <path d="M 53.045 331.905469 
L 551.555 331.905469 
" clip-path="url(#p8b99fa45fb)" style="fill: none; stroke-dasharray: 2.96,1.28; stroke-dashoffset: 0; stroke: #b0b0b0; stroke-opacity: 0.2; stroke-width: 0.8"/>
     </g>
     <g id="line2d_14">
      <defs>
       <path id="m1a3b77055d" d="M 0 0 
L 3.5 0 
" style="stroke: #000000; stroke-width: 0.8"/>
      </defs>
      <g>
       <use xlink:href="#m1a3b77055d" x="53.045" y="331.905469" style="stroke: #000000; stroke-width: 0.8"/>
      </g>
     </g>
     <g id="text_8">
      <!-- 0 -->
      <g transform="translate(40.11 338.670937) scale(0.17 -0.17)">
       <use xlink:href="#NotoSansCJKjp-Regular-30"/>
      </g>
     </g>
    </g>
    <g id="ytick_2">
     <g id="line2d_15">
      <path d="M 53.045 286.485469 
L 551.555 286.485469 
" clip-path="url(#p8b99fa45fb)" style="fill: none; stroke-dasharray: 2.96,1.28; stroke-dashoffset: 0; stroke: #b0b0b0; stroke-opacity: 0.2; stroke-width: 0.8"/>
     </g>
     <g id="line2d_16">
      <g>
       <use xlink:href="#m1a3b77055d" x="53.045" y="286.485469" style="stroke: #000000; stroke-width: 0.8"/>
      </g>
     </g>
     <g id="text_9">
      <!-- 2 -->
      <g transform="translate(40.11 293.250937) scale(0.17 -0.17)">
       <use xlink:href="#NotoSansCJKjp-Regular-32"/>
      </g>
     </g>
    </g>
    <g id="ytick_3">
     <g id="line2d_17">
      <path d="M 53.045 241.065469 
L 551.555 241.065469 
" clip-path="url(#p8b99fa45fb)" style="fill: none; stroke-dasharray: 2.96,1.28; stroke-dashoffset: 0; stroke: #b0b0b0; stroke-opacity: 0.2; stroke-width: 0.8"/>
     </g>
     <g id="line2d_18">
      <g>
       <use xlink:href="#m1a3b77055d" x="53.045" y="241.065469" style="stroke: #000000; stroke-width: 0.8"/>
      </g>
     </g>
     <g id="text_10">
      <!-- 4 -->
      <g transform="translate(40.11 247.830937) scale(0.17 -0.17)">
       <use xlink:href="#NotoSansCJKjp-Regular-34"/>
      </g>
     </g>
    </g>
    <g id="ytick_4">
     <g id="line2d_19">
      <path d="M 53.045 195.645469 
L 551.555 195.645469 
" clip-path="url(#p8b99fa45fb)" style="fill: none; stroke-dasharray: 2.96,1.28; stroke-dashoffset: 0; stroke: #b0b0b0; stroke-opacity: 0.2; stroke-width: 0.8"/>
     </g>
     <g id="line2d_20">
      <g>
       <use xlink:href="#m1a3b77055d" x="53.045" y="195.645469" style="stroke: #000000; stroke-width: 0.8"/>
      </g>
     </g>
     <g id="text_11">
      <!-- 6 -->
      <g transform="translate(40.11 202.410937) scale(0.17 -0.17)">
       <use xlink:href="#NotoSansCJKjp-Regular-36"/>
      </g>
     </g>
    </g>
    <g id="ytick_5">
     <g id="line2d_21">
      <path d="M 53.045 150.225469 
L 551.555 150.225469 
" clip-path="url(#p8b99fa45fb)" style="fill: none; stroke-dasharray: 2.96,1.28; stroke-dashoffset: 0; stroke: #b0b0b0; stroke-opacity: 0.2; stroke-width: 0.8"/>
     </g>
     <g id="line2d_22">
      <g>
       <use xlink:href="#m1a3b77055d" x="53.045" y="150.225469" style="stroke: #000000; stroke-width: 0.8"/>
      </g>
     </g>
     <g id="text_12">
      <!-- 8 -->
      <g transform="translate(40.11 156.990937) scale(0.17 -0.17)">
       <use xlink:href="#NotoSansCJKjp-Regular-38"/>
      </g>
     </g>
    </g>
    <g id="ytick_6">
     <g id="line2d_23">
      <path d="M 53.045 104.805469 
L 551.555 104.805469 
" clip-path="url(#p8b99fa45fb)" style="fill: none; stroke-dasharray: 2.96,1.28; stroke-dashoffset: 0; stroke: #b0b0b0; stroke-opacity: 0.2; stroke-width: 0.8"/>
     </g>
     <g id="line2d_24">
      <g>
       <use xlink:href="#m1a3b77055d" x="53.045" y="104.805469" style="stroke: #000000; stroke-width: 0.8"/>
      </g>
     </g>
     <g id="text_13">
      <!-- 10 -->
      <g transform="translate(30.675 111.570937) scale(0.17 -0.17)">
       <use xlink:href="#NotoSansCJKjp-Regular-31"/>
       <use xlink:href="#NotoSansCJKjp-Regular-30" x="55.499985"/>
      </g>
     </g>
    </g>
    <g id="ytick_7">
     <g id="line2d_25">
      <path d="M 53.045 59.385469 
L 551.555 59.385469 
" clip-path="url(#p8b99fa45fb)" style="fill: none; stroke-dasharray: 2.96,1.28; stroke-dashoffset: 0; stroke: #b0b0b0; stroke-opacity: 0.2; stroke-width: 0.8"/>
     </g>
     <g id="line2d_26">
      <g>
       <use xlink:href="#m1a3b77055d" x="53.045" y="59.385469" style="stroke: #000000; stroke-width: 0.8"/>
      </g>
     </g>
     <g id="text_14">
      <!-- 12 -->
      <g transform="translate(30.675 66.150937) scale(0.17 -0.17)">
       <use xlink:href="#NotoSansCJKjp-Regular-31"/>
       <use xlink:href="#NotoSansCJKjp-Regular-32" x="55.499985"/>
      </g>
     </g>
    </g>
    <g id="ytick_8">
     <g id="line2d_27">
      <path d="M 53.045 13.965469 
L 551.555 13.965469 
" clip-path="url(#p8b99fa45fb)" style="fill: none; stroke-dasharray: 2.96,1.28; stroke-dashoffset: 0; stroke: #b0b0b0; stroke-opacity: 0.2; stroke-width: 0.8"/>
     </g>
     <g id="line2d_28">
      <g>
       <use xlink:href="#m1a3b77055d" x="53.045" y="13.965469" style="stroke: #000000; stroke-width: 0.8"/>
      </g>
     </g>
     <g id="text_15">
      <!-- 14 -->
      <g transform="translate(30.675 20.730937) scale(0.17 -0.17)">
       <use xlink:href="#NotoSansCJKjp-Regular-31"/>
       <use xlink:href="#NotoSansCJKjp-Regular-34" x="55.499985"/>
      </g>
     </g>
    </g>
    <g id="text_16">
     <!-- 评估合法信噪比（dB） -->
     <g transform="translate(22.322813 270.567266) rotate(-90) scale(0.19 -0.19)">
      <defs>
       <path id="DroidSansFallback-8bc4" d="M 1275 5175 
Q 1700 4675 1975 4125 
L 1500 3850 
Q 1250 4400 825 4900 
L 1275 5175 
z
M 325 3325 
L 1675 3325 
L 1675 425 
L 2200 1000 
L 2525 700 
Q 2175 225 1575 -250 
L 1200 75 
L 1200 2875 
L 325 2875 
L 325 3325 
z
M 2375 4950 
L 5875 4950 
L 5875 4475 
L 4300 4475 
L 4300 2050 
L 6075 2050 
L 6075 1575 
L 4300 1575 
L 4300 -575 
L 3825 -575 
L 3825 1575 
L 2050 1575 
L 2050 2050 
L 3825 2050 
L 3825 4475 
L 2375 4475 
L 2375 4950 
z
M 5375 4125 
L 5850 3950 
Q 5550 2950 5150 2275 
L 4725 2525 
Q 5150 3325 5375 4125 
z
M 2900 4125 
Q 3250 3275 3375 2425 
L 2900 2300 
Q 2775 3200 2400 4000 
L 2900 4125 
z
" transform="scale(0.015625)"/>
       <path id="DroidSansFallback-4f30" d="M 1575 5175 
L 2075 5025 
L 1625 3875 
L 1625 -575 
L 1125 -575 
L 1125 2925 
L 500 2050 
L 250 2550 
Q 1175 3800 1575 5175 
z
M 2025 3925 
L 3775 3925 
L 3775 5175 
L 4275 5175 
L 4275 3925 
L 6050 3925 
L 6050 3475 
L 4275 3475 
L 4275 2225 
L 5675 2225 
L 5675 -575 
L 5175 -575 
L 5175 -150 
L 2975 -150 
L 2975 -575 
L 2475 -575 
L 2475 2225 
L 3775 2225 
L 3775 3475 
L 2025 3475 
L 2025 3925 
z
M 2975 325 
L 5175 325 
L 5175 1750 
L 2975 1750 
L 2975 325 
z
" transform="scale(0.015625)"/>
       <path id="DroidSansFallback-5408" d="M 3150 5250 
L 3675 5100 
L 3500 4900 
Q 4750 3900 6125 3350 
L 5825 2850 
Q 4500 3425 3200 4575 
Q 2025 3475 525 2800 
L 250 3250 
Q 2275 4200 3150 5250 
z
M 1300 3100 
L 5075 3100 
L 5075 2600 
L 1300 2600 
L 1300 3100 
z
M 5300 1925 
L 5300 -575 
L 4800 -575 
L 4800 -175 
L 1550 -175 
L 1550 -575 
L 1050 -575 
L 1050 1925 
L 5300 1925 
z
M 1550 300 
L 4800 300 
L 4800 1450 
L 1550 1450 
L 1550 300 
z
" transform="scale(0.015625)"/>
       <path id="DroidSansFallback-6cd5" d="M 900 5125 
Q 1450 4825 1900 4400 
L 1575 3975 
Q 1075 4450 550 4775 
L 900 5125 
z
M 650 3575 
L 1575 2950 
L 1225 2525 
Q 800 2950 300 3225 
L 650 3575 
z
M 1225 2000 
L 1650 1700 
Q 1350 525 775 -575 
L 275 -225 
Q 875 825 1225 2000 
z
M 2300 4100 
L 3750 4100 
L 3750 5175 
L 4275 5175 
L 4275 4100 
L 5725 4100 
L 5725 3625 
L 4275 3625 
L 4275 2550 
L 6050 2550 
L 6050 2050 
L 3950 2050 
Q 3450 725 2925 175 
Q 3900 275 4925 525 
L 4475 1425 
L 4925 1625 
Q 5475 725 5850 -350 
L 5325 -575 
L 5125 50 
Q 3825 -250 2375 -350 
L 2225 125 
Q 2900 800 3375 2050 
L 2025 2050 
L 2025 2550 
L 3750 2550 
L 3750 3625 
L 2300 3625 
L 2300 4100 
z
" transform="scale(0.015625)"/>
       <path id="DroidSansFallback-4fe1" d="M 1575 5175 
L 2075 5025 
L 1625 3875 
L 1625 -575 
L 1125 -575 
L 1125 2925 
L 500 2050 
L 250 2550 
Q 1175 3800 1575 5175 
z
M 2100 4450 
L 3875 4450 
L 3600 5000 
L 4125 5175 
L 4450 4450 
L 6075 4450 
L 6075 3975 
L 2100 3975 
L 2100 4450 
z
M 2425 3475 
L 5725 3475 
L 5725 3025 
L 2425 3025 
L 2425 3475 
z
M 2425 2525 
L 5725 2525 
L 5725 2075 
L 2425 2075 
L 2425 2525 
z
M 5675 1575 
L 5675 -525 
L 5175 -525 
L 5175 -225 
L 2975 -225 
L 2975 -550 
L 2475 -550 
L 2475 1575 
L 5675 1575 
z
M 2975 225 
L 5175 225 
L 5175 1125 
L 2975 1125 
L 2975 225 
z
" transform="scale(0.015625)"/>
       <path id="DroidSansFallback-566a" d="M 2700 5050 
L 5375 5050 
L 5375 3750 
L 2700 3750 
L 2700 5050 
z
M 3200 4175 
L 4875 4175 
L 4875 4625 
L 3200 4625 
L 3200 4175 
z
M 2225 3400 
L 3850 3400 
L 3850 2025 
L 2225 2025 
L 2225 3400 
z
M 2700 2450 
L 3375 2450 
L 3375 3000 
L 2700 3000 
L 2700 2450 
z
M 4250 3400 
L 5875 3400 
L 5875 2025 
L 4250 2025 
L 4250 3400 
z
M 4725 2450 
L 5400 2450 
L 5400 3000 
L 4725 3000 
L 4725 2450 
z
M 2175 1550 
L 3850 1550 
L 3850 1850 
L 4325 1850 
L 4325 1550 
L 6075 1550 
L 6075 1125 
L 4600 1125 
Q 5225 400 6175 75 
L 5925 -400 
Q 5000 25 4325 850 
L 4325 -575 
L 3850 -575 
L 3850 825 
Q 3250 125 2250 -350 
L 1925 50 
Q 2900 450 3575 1125 
L 2175 1125 
L 2175 1550 
z
M 1925 4600 
L 1925 675 
L 1475 675 
L 1475 1100 
L 975 1100 
L 975 450 
L 525 450 
L 525 4600 
L 1925 4600 
z
M 975 1525 
L 1475 1525 
L 1475 4175 
L 975 4175 
L 975 1525 
z
" transform="scale(0.015625)"/>
       <path id="DroidSansFallback-6bd4" d="M 825 5100 
L 1350 5100 
L 1350 3325 
L 2900 3325 
L 2900 2825 
L 1350 2825 
L 1350 75 
L 2825 675 
L 2925 150 
L 1075 -575 
L 825 -325 
L 825 5100 
z
M 3400 5100 
L 3925 5100 
L 3925 3225 
Q 4800 3575 5550 4075 
L 5875 3625 
Q 4975 3075 3925 2675 
L 3925 225 
Q 3925 125 4062 75 
Q 4200 25 4950 25 
Q 5325 25 5437 175 
Q 5550 325 5600 925 
L 6075 725 
Q 5975 -100 5775 -300 
Q 5575 -500 4950 -500 
Q 3925 -500 3662 -350 
Q 3400 -200 3400 125 
L 3400 5100 
z
" transform="scale(0.015625)"/>
       <path id="NotoSansCJKjp-Regular-64" d="M 1773 -83 
C 2189 -83 2560 141 2829 410 
L 2848 410 
L 2899 0 
L 3379 0 
L 3379 5094 
L 2790 5094 
L 2790 3757 
L 2822 3162 
C 2515 3411 2253 3565 1843 3565 
C 1050 3565 339 2861 339 1734 
C 339 576 902 -83 1773 -83 
z
M 1901 410 
C 1293 410 941 902 941 1741 
C 941 2534 1389 3072 1946 3072 
C 2234 3072 2502 2970 2790 2707 
L 2790 883 
C 2502 563 2221 410 1901 410 
z
" transform="scale(0.015625)"/>
       <path id="NotoSansCJKjp-Regular-42" d="M 646 0 
L 2138 0 
C 3187 0 3917 454 3917 1376 
C 3917 2016 3520 2387 2963 2496 
L 2963 2528 
C 3405 2669 3648 3078 3648 3546 
C 3648 4371 2982 4691 2035 4691 
L 646 4691 
L 646 0 
z
M 1235 2701 
L 1235 4224 
L 1958 4224 
C 2694 4224 3066 4019 3066 3469 
C 3066 2989 2739 2701 1933 2701 
L 1235 2701 
z
M 1235 474 
L 1235 2240 
L 2054 2240 
C 2880 2240 3334 1978 3334 1395 
C 3334 762 2861 474 2054 474 
L 1235 474 
z
" transform="scale(0.015625)"/>
      </defs>
      <use xlink:href="#DroidSansFallback-8bc4"/>
      <use xlink:href="#DroidSansFallback-4f30" x="100"/>
      <use xlink:href="#DroidSansFallback-5408" x="200"/>
      <use xlink:href="#DroidSansFallback-6cd5" x="300"/>
      <use xlink:href="#DroidSansFallback-4fe1" x="400"/>
      <use xlink:href="#DroidSansFallback-566a" x="500"/>
      <use xlink:href="#DroidSansFallback-6bd4" x="600"/>
      <use xlink:href="#DroidSansFallback-ff08" x="700"/>
      <use xlink:href="#NotoSansCJKjp-Regular-64" x="800"/>
      <use xlink:href="#NotoSansCJKjp-Regular-42" x="861.999985"/>
      <use xlink:href="#DroidSansFallback-ff09" x="927.699982"/>
     </g>
    </g>
   </g>
   <g id="line2d_29">
    <path d="M 58.0301 324.691481 
L 63.0152 309.801497 
L 68.0003 298.625831 
L 72.9854 287.25891 
L 77.9705 275.846957 
L 82.9556 265.63586 
L 87.9407 256.247951 
L 92.9258 250.766777 
L 97.9109 243.405161 
L 102.896 237.944937 
L 107.8811 234.379278 
L 112.8662 230.743626 
L 117.8513 228.044784 
L 122.8364 224.057646 
L 127.8215 223.366442 
L 132.8066 220.562023 
L 137.7917 215.502345 
L 142.7768 213.388861 
L 147.7619 211.302033 
L 152.747 210.052394 
L 157.7321 207.18479 
L 162.7172 206.354413 
L 167.7023 205.130874 
L 172.6874 203.442473 
L 177.6725 202.974143 
L 182.6576 201.743391 
L 187.6427 200.103607 
L 192.6278 196.897706 
L 197.6129 196.882807 
L 202.598 197.569668 
L 207.5831 196.636386 
L 212.5682 194.114022 
L 217.5533 194.004987 
L 222.5384 193.02281 
L 227.5235 191.665994 
L 232.5086 192.43985 
L 237.4937 190.963957 
L 242.4788 190.205029 
L 247.4639 189.64555 
L 252.449 190.275527 
L 257.4341 189.106602 
L 262.4192 190.068359 
L 267.4043 190.026774 
L 272.3894 190.49127 
L 277.3745 189.995188 
L 282.3596 190.365318 
L 287.3447 192.21078 
L 292.3298 191.35864 
L 297.3149 192.164378 
L 302.3 191.910975 
L 307.2851 194.436877 
L 312.2702 195.042044 
L 317.2553 193.153429 
L 322.2404 191.879964 
L 327.2255 191.856315 
L 332.2106 189.413203 
L 337.1957 187.837516 
L 342.1808 186.107725 
L 347.1659 186.689662 
L 352.151 188.655512 
L 357.1361 187.929687 
L 362.1212 189.216955 
L 367.1063 188.573913 
L 372.0914 188.958228 
L 377.0765 186.925977 
L 382.0616 187.037823 
L 387.0467 187.000846 
L 392.0318 185.860124 
L 397.0169 185.221834 
L 402.002 185.387769 
L 406.9871 187.376504 
L 411.9722 187.106952 
L 416.9573 185.579838 
L 421.9424 185.119685 
L 426.9275 183.981698 
L 431.9126 185.397056 
L 436.8977 186.652698 
L 441.8828 185.280977 
L 446.8679 186.208951 
L 451.853 187.37363 
L 456.8381 186.811776 
L 461.8232 184.355348 
L 466.8083 183.543072 
L 471.7934 185.622222 
L 476.7785 185.354288 
L 481.7636 186.923948 
L 486.7487 187.360286 
L 491.7338 188.899032 
L 496.7189 189.254916 
L 501.704 187.289834 
L 506.6891 187.646904 
L 511.6742 186.280644 
L 516.6593 186.561715 
L 521.6444 186.238129 
L 526.6295 184.770758 
L 531.6146 184.888883 
L 536.5997 184.473086 
L 541.5848 184.79158 
L 546.5699 183.15862 
L 551.555 184.807212 
" clip-path="url(#p8b99fa45fb)" style="fill: none; stroke: #e45756; stroke-width: 2.8; stroke-linecap: square"/>
   </g>
   <g id="line2d_30">
    <path d="M 58.0301 231.622924 
L 63.0152 221.245831 
L 68.0003 212.176381 
L 72.9854 202.115734 
L 77.9705 193.869926 
L 82.9556 187.734388 
L 87.9407 181.321151 
L 92.9258 175.253528 
L 97.9109 169.40444 
L 102.896 164.19047 
L 107.8811 160.71501 
L 112.8662 154.15756 
L 117.8513 153.030318 
L 122.8364 149.944634 
L 127.8215 145.740537 
L 132.8066 143.025711 
L 137.7917 139.781678 
L 142.7768 136.918884 
L 147.7619 135.383145 
L 152.747 135.321672 
L 157.7321 133.411042 
L 162.7172 133.622728 
L 167.7023 130.232048 
L 172.6874 129.170948 
L 177.6725 129.197835 
L 182.6576 127.899161 
L 187.6427 127.130142 
L 192.6278 126.59251 
L 197.6129 123.033885 
L 202.598 120.560122 
L 207.5831 118.703632 
L 212.5682 120.002761 
L 217.5533 118.194922 
L 222.5384 117.788902 
L 227.5235 117.429452 
L 232.5086 116.571256 
L 237.4937 118.210849 
L 242.4788 118.476835 
L 247.4639 119.009339 
L 252.449 118.782886 
L 257.4341 118.890912 
L 262.4192 119.798915 
L 267.4043 117.070252 
L 272.3894 118.761537 
L 277.3745 117.906656 
L 282.3596 117.112752 
L 287.3447 115.016618 
L 292.3298 114.315231 
L 297.3149 114.982584 
L 302.3 114.669663 
L 307.2851 115.005512 
L 312.2702 114.398074 
L 317.2553 114.228171 
L 322.2404 115.035417 
L 327.2255 115.351662 
L 332.2106 115.110433 
L 337.1957 115.632864 
L 342.1808 115.247712 
L 347.1659 116.729038 
L 352.151 115.902425 
L 357.1361 114.73386 
L 362.1212 114.49265 
L 367.1063 112.055986 
L 372.0914 112.020812 
L 377.0765 114.357341 
L 382.0616 114.521304 
L 387.0467 113.315934 
L 392.0318 114.464663 
L 397.0169 114.107862 
L 402.002 114.277359 
L 406.9871 112.100884 
L 411.9722 111.367409 
L 416.9573 109.568813 
L 421.9424 108.761684 
L 426.9275 109.003749 
L 431.9126 108.224261 
L 436.8977 110.52345 
L 441.8828 110.823652 
L 446.8679 111.055618 
L 451.853 112.409675 
L 456.8381 113.631088 
L 461.8232 113.230682 
L 466.8083 112.589415 
L 471.7934 110.575254 
L 476.7785 109.795581 
L 481.7636 106.271309 
L 486.7487 107.360798 
L 491.7338 108.704798 
L 496.7189 109.465111 
L 501.704 108.896102 
L 506.6891 109.538887 
L 511.6742 111.546959 
L 516.6593 110.598857 
L 521.6444 108.688264 
L 526.6295 111.059753 
L 531.6146 108.837678 
L 536.5997 106.551444 
L 541.5848 104.990921 
L 546.5699 105.726152 
L 551.555 106.030533 
" clip-path="url(#p8b99fa45fb)" style="fill: none; stroke: #4c78a8; stroke-width: 2.8; stroke-linecap: square"/>
   </g>
   <g id="line2d_31">
    <path d="M 58.0301 122.451763 
L 63.0152 114.658821 
L 68.0003 110.605832 
L 72.9854 105.652713 
L 77.9705 103.664591 
L 82.9556 98.613718 
L 87.9407 92.358698 
L 92.9258 92.153459 
L 97.9109 89.387528 
L 102.896 86.092415 
L 107.8811 83.744868 
L 112.8662 81.465244 
L 117.8513 79.441706 
L 122.8364 78.839615 
L 127.8215 79.015928 
L 132.8066 76.536889 
L 137.7917 75.983387 
L 142.7768 76.184753 
L 147.7619 74.431408 
L 152.747 74.647731 
L 157.7321 75.048041 
L 162.7172 72.194424 
L 167.7023 70.547045 
L 172.6874 67.538164 
L 177.6725 65.298925 
L 182.6576 65.253737 
L 187.6427 65.739803 
L 192.6278 64.493495 
L 197.6129 63.115562 
L 202.598 62.143832 
L 207.5831 61.868017 
L 212.5682 62.828802 
L 217.5533 64.593959 
L 222.5384 60.50179 
L 227.5235 62.374731 
L 232.5086 60.452175 
L 237.4937 60.789697 
L 242.4788 61.375962 
L 247.4639 59.601608 
L 252.449 57.194054 
L 257.4341 57.361765 
L 262.4192 59.547351 
L 267.4043 57.732059 
L 272.3894 59.309477 
L 277.3745 60.99217 
L 282.3596 62.175268 
L 287.3447 60.967956 
L 292.3298 59.131628 
L 297.3149 56.604917 
L 302.3 56.391547 
L 307.2851 52.013102 
L 312.2702 52.498868 
L 317.2553 50.828203 
L 322.2404 49.142878 
L 327.2255 47.351033 
L 332.2106 49.566453 
L 337.1957 48.439011 
L 342.1808 43.363858 
L 347.1659 41.23501 
L 352.151 44.1406 
L 357.1361 44.699047 
L 362.1212 43.506968 
L 367.1063 43.719398 
L 372.0914 45.183399 
L 377.0765 44.065923 
L 382.0616 43.126586 
L 387.0467 45.214085 
L 392.0318 44.043266 
L 397.0169 43.757942 
L 402.002 42.578304 
L 406.9871 44.182589 
L 411.9722 44.052885 
L 416.9573 45.364069 
L 421.9424 42.668524 
L 426.9275 45.221876 
L 431.9126 43.702169 
L 436.8977 42.777043 
L 441.8828 41.925502 
L 446.8679 41.341594 
L 451.853 39.805699 
L 456.8381 39.703098 
L 461.8232 37.255442 
L 466.8083 34.507929 
L 471.7934 35.065483 
L 476.7785 35.963651 
L 481.7636 35.92677 
L 486.7487 34.570206 
L 491.7338 34.851175 
L 496.7189 33.436917 
L 501.704 34.918033 
L 506.6891 36.263633 
L 511.6742 32.667619 
L 516.6593 33.08926 
L 521.6444 29.104784 
L 526.6295 26.49847 
L 531.6146 27.374148 
L 536.5997 25.606722 
L 541.5848 27.439041 
L 546.5699 27.311634 
L 551.555 28.326268 
" clip-path="url(#p8b99fa45fb)" style="fill: none; stroke: #54a24b; stroke-width: 2.8; stroke-linecap: square"/>
   </g>
   <g id="patch_3">
    <path d="M 53.045 331.905469 
L 53.045 13.965469 
" style="fill: none; stroke: #000000; stroke-width: 1.2; stroke-linejoin: miter; stroke-linecap: square"/>
   </g>
   <g id="patch_4">
    <path d="M 551.555 331.905469 
L 551.555 13.965469 
" style="fill: none; stroke: #000000; stroke-width: 1.2; stroke-linejoin: miter; stroke-linecap: square"/>
   </g>
   <g id="patch_5">
    <path d="M 53.045 331.905469 
L 551.555 331.905469 
" style="fill: none; stroke: #000000; stroke-width: 1.2; stroke-linejoin: miter; stroke-linecap: square"/>
   </g>
   <g id="patch_6">
    <path d="M 53.045 13.965469 
L 551.555 13.965469 
" style="fill: none; stroke: #000000; stroke-width: 1.2; stroke-linejoin: miter; stroke-linecap: square"/>
   </g>
   <g id="legend_1">
    <g id="patch_7">
     <path d="M 406.445 324.905469 
L 541.755 324.905469 
Q 544.555 324.905469 544.555 322.105469 
L 544.555 259.455469 
Q 544.555 256.655469 541.755 256.655469 
L 406.445 256.655469 
Q 403.645 256.655469 403.645 259.455469 
L 403.645 322.105469 
Q 403.645 324.905469 406.445 324.905469 
z
" style="fill: #ffffff; opacity: 0.9; stroke: #bfbfbf; stroke-linejoin: miter"/>
    </g>
    <g id="line2d_32">
     <path d="M 409.245 268.498594 
L 428.845 268.498594 
L 448.445 268.498594 
" style="fill: none; stroke: #e45756; stroke-width: 2.8; stroke-linecap: square"/>
    </g>
    <g id="text_17">
     <!-- 安全阈值=5 -->
     <g transform="translate(459.645 273.398594) scale(0.14 -0.14)">
      <defs>
       <path id="DroidSansFallback-5b89" d="M 3250 5225 
L 3525 4625 
L 5925 4625 
L 5925 3475 
L 5425 3475 
L 5425 4175 
L 975 4175 
L 975 3475 
L 475 3475 
L 475 4625 
L 2975 4625 
L 2725 5075 
L 3250 5225 
z
M 400 2800 
L 2100 2800 
L 2575 3875 
L 3125 3825 
L 2700 2800 
L 5975 2800 
L 5975 2300 
L 4750 2300 
Q 4550 1375 4000 775 
L 5825 -100 
L 5475 -600 
Q 4750 -125 3575 400 
Q 2550 -325 775 -600 
L 525 -100 
Q 2100 125 3000 650 
L 1275 1325 
L 1850 2300 
L 400 2300 
L 400 2800 
z
M 2450 2300 
L 1975 1550 
L 3475 975 
Q 4000 1475 4200 2300 
L 2450 2300 
z
" transform="scale(0.015625)"/>
       <path id="DroidSansFallback-5168" d="M 5125 2875 
L 5125 2625 
L 3475 2625 
L 3475 1625 
L 5250 1625 
L 5250 1150 
L 3475 1150 
L 3475 150 
L 5750 150 
L 5750 -325 
L 625 -325 
L 625 150 
L 2950 150 
L 2950 1150 
L 1175 1150 
L 1175 1625 
L 2950 1625 
L 2950 2625 
L 1225 2625 
L 1225 2850 
L 525 2450 
L 275 2950 
Q 2250 4025 3100 5225 
L 3625 5075 
L 3500 4900 
Q 4750 3650 6150 2975 
L 5850 2450 
L 5125 2875 
z
M 3200 4525 
Q 2475 3725 1575 3100 
L 4825 3100 
Q 3900 3775 3200 4525 
z
" transform="scale(0.015625)"/>
       <path id="DroidSansFallback-9608" d="M 4475 4400 
L 4750 3850 
L 4300 3700 
Q 4225 4025 4050 4275 
L 4475 4400 
z
M 1475 3500 
L 3325 3500 
L 3300 4175 
L 3775 4175 
L 3775 3500 
L 4825 3500 
L 4825 3075 
L 3800 3075 
Q 3825 2300 3975 1625 
L 4350 2825 
L 4775 2675 
Q 4525 1650 4150 975 
Q 4300 525 4400 525 
Q 4550 525 4650 1150 
L 5050 1000 
Q 4875 50 4400 50 
Q 4150 50 3900 600 
Q 3600 175 3175 -175 
L 2925 175 
Q 3425 600 3700 1100 
Q 3400 2000 3325 3075 
L 1475 3075 
L 1475 3500 
z
M 1625 2700 
L 3075 2700 
L 3075 1425 
L 1625 1425 
L 1625 2700 
z
M 2025 1775 
L 2675 1775 
L 2675 2325 
L 2025 2325 
L 2025 1775 
z
M 3150 1125 
L 3200 750 
L 1550 375 
L 1450 825 
L 3150 1125 
z
M 1600 5250 
Q 1950 4850 2175 4375 
L 1725 4100 
Q 1525 4575 1175 4975 
L 1600 5250 
z
M 2675 4950 
L 5750 4950 
L 5750 100 
Q 5750 -600 5175 -600 
L 4700 -575 
L 4575 -50 
L 5075 -100 
Q 5250 -100 5250 250 
L 5250 4500 
L 2675 4500 
L 2675 4950 
z
M 650 4050 
L 1150 4050 
L 1150 -575 
L 650 -575 
L 650 4050 
z
" transform="scale(0.015625)"/>
       <path id="DroidSansFallback-503c" d="M 1575 5175 
L 2075 5025 
L 1625 3875 
L 1625 -575 
L 1125 -575 
L 1125 2925 
L 500 2050 
L 250 2550 
Q 1175 3800 1575 5175 
z
M 2250 4575 
L 3800 4575 
L 3800 5150 
L 4300 5150 
L 4300 4575 
L 5875 4575 
L 5875 4125 
L 4300 4125 
L 4300 3550 
L 5575 3550 
L 5575 75 
L 6050 75 
L 6050 -350 
L 1925 -350 
L 1925 75 
L 2625 75 
L 2625 3550 
L 3800 3550 
L 3800 4125 
L 2250 4125 
L 2250 4575 
z
M 3125 2650 
L 5075 2650 
L 5075 3125 
L 3125 3125 
L 3125 2650 
z
M 3125 1775 
L 5075 1775 
L 5075 2275 
L 3125 2275 
L 3125 1775 
z
M 3125 925 
L 5075 925 
L 5075 1400 
L 3125 1400 
L 3125 925 
z
M 3125 75 
L 5075 75 
L 5075 550 
L 3125 550 
L 3125 75 
z
" transform="scale(0.015625)"/>
       <path id="NotoSansCJKjp-Regular-3d" d="M 243 2912 
L 3315 2912 
L 3315 3347 
L 243 3347 
L 243 2912 
z
M 243 1376 
L 3315 1376 
L 3315 1811 
L 243 1811 
L 243 1376 
z
" transform="scale(0.015625)"/>
       <path id="NotoSansCJKjp-Regular-35" d="M 1677 -83 
C 2464 -83 3213 499 3213 1523 
C 3213 2560 2573 3021 1798 3021 
C 1517 3021 1306 2950 1094 2835 
L 1216 4192 
L 2982 4192 
L 2982 4691 
L 704 4691 
L 550 2502 
L 864 2304 
C 1133 2483 1331 2579 1645 2579 
C 2234 2579 2618 2182 2618 1510 
C 2618 826 2176 403 1619 403 
C 1075 403 730 653 467 922 
L 173 538 
C 493 224 941 -83 1677 -83 
z
" transform="scale(0.015625)"/>
      </defs>
      <use xlink:href="#DroidSansFallback-5b89"/>
      <use xlink:href="#DroidSansFallback-5168" x="100"/>
      <use xlink:href="#DroidSansFallback-9608" x="200"/>
      <use xlink:href="#DroidSansFallback-503c" x="300"/>
      <use xlink:href="#NotoSansCJKjp-Regular-3d" x="400"/>
      <use xlink:href="#NotoSansCJKjp-Regular-35" x="455.499985"/>
     </g>
    </g>
    <g id="line2d_33">
     <path d="M 409.245 289.848594 
L 428.845 289.848594 
L 448.445 289.848594 
" style="fill: none; stroke: #4c78a8; stroke-width: 2.8; stroke-linecap: square"/>
    </g>
    <g id="text_18">
     <!-- 安全阈值=10 -->
     <g transform="translate(459.645 294.748594) scale(0.14 -0.14)">
      <use xlink:href="#DroidSansFallback-5b89"/>
      <use xlink:href="#DroidSansFallback-5168" x="100"/>
      <use xlink:href="#DroidSansFallback-9608" x="200"/>
      <use xlink:href="#DroidSansFallback-503c" x="300"/>
      <use xlink:href="#NotoSansCJKjp-Regular-3d" x="400"/>
      <use xlink:href="#NotoSansCJKjp-Regular-31" x="455.499985"/>
      <use xlink:href="#NotoSansCJKjp-Regular-30" x="510.999969"/>
     </g>
    </g>
    <g id="line2d_34">
     <path d="M 409.245 311.198594 
L 428.845 311.198594 
L 448.445 311.198594 
" style="fill: none; stroke: #54a24b; stroke-width: 2.8; stroke-linecap: square"/>
    </g>
    <g id="text_19">
     <!-- 安全阈值=15 -->
     <g transform="translate(459.645 316.098594) scale(0.14 -0.14)">
      <use xlink:href="#DroidSansFallback-5b89"/>
      <use xlink:href="#DroidSansFallback-5168" x="100"/>
      <use xlink:href="#DroidSansFallback-9608" x="200"/>
      <use xlink:href="#DroidSansFallback-503c" x="300"/>
      <use xlink:href="#NotoSansCJKjp-Regular-3d" x="400"/>
      <use xlink:href="#NotoSansCJKjp-Regular-31" x="455.499985"/>
      <use xlink:href="#NotoSansCJKjp-Regular-35" x="510.999969"/>
     </g>
    </g>
   </g>
  </g>
 </g>
 <defs>
  <clipPath id="p8b99fa45fb">
   <rect x="53.045" y="13.965469" width="498.51" height="317.94"/>
  </clipPath>
 </defs>
</svg>
