<?xml version="1.0" encoding="utf-8" standalone="no"?>
<!DOCTYPE svg PUBLIC "-//W3C//DTD SVG 1.1//EN"
  "http://www.w3.org/Graphics/SVG/1.1/DTD/svg11.dtd">
<svg xmlns:xlink="http://www.w3.org/1999/xlink" width="570.548672pt" height="383.505469pt" viewBox="0 0 570.548672 383.505469" xmlns="http://www.w3.org/2000/svg" version="1.1">
 <metadata>
  <rdf:RDF xmlns:dc="http://purl.org/dc/elements/1.1/" xmlns:cc="http://creativecommons.org/ns#" xmlns:rdf="http://www.w3.org/1999/02/22-rdf-syntax-ns#">
   <cc:Work>
    <dc:type rdf:resource="http://purl.org/dc/dcmitype/StillImage"/>
    <dc:date>2026-04-03T21:31:00.053128</dc:date>
    <dc:format>image/svg+xml</dc:format>
    <dc:creator>
     <cc:Agent>
      <dc:title>Matplotlib v3.7.2, https://matplotlib.org/</dc:title>
     </cc:Agent>
    </dc:creator>
   </cc:Work>
  </rdf:RDF>
 </metadata>
 <defs>
  <style type="text/css">*{stroke-linejoin: round; stroke-linecap: butt}</style>
 </defs>
 <g id="figure_1">
  <g id="patch_1">
   <path d="M 0 383.505469 
L 570.548672 383.505469 
L 570.548672 0 
L 0 0 
z
" style="fill: #ffffff"/>
  </g>
  <g id="axes_1">
   <g id="patch_2">
    <path d="M 68.700938 331.905469 
L 551.550938 331.905469 
L 551.550938 13.965469 
L 68.700938 13.965469 
z
" style="fill: #ffffff"/>
   </g>
   <g id="matplotlib.axis_1">
    <g id="xtick_1">
     <g id="line2d_1">
      <path d="M 68.700938 331.905469 
L 68.700938 13.965469 
" clip-path="url(#padc6953a34)" style="fill: none; stroke-dasharray: 2.96,1.28; stroke-dashoffset: 0; stroke: #b0b0b0; stroke-opacity: 0.2; stroke-width: 0.8"/>
     </g>
     <g id="line2d_2">
      <defs>
       <path id="m0be92f633d" d="M 0 0 
L 0 -3.5 
" style="stroke: #000000; stroke-width: 0.8"/>
      </defs>
      <g>
       <use xlink:href="#m0be92f633d" x="68.700938" y="331.905469" style="stroke: #000000; stroke-width: 0.8"/>
      </g>
     </g>
     <g id="text_1">
      <!-- 0.0 -->
      <g transform="translate(56.903203 348.936406) scale(0.17 -0.17)">
       <defs>
        <path id="NotoSansCJKjp-Regular-30" d="M 1779 -83 
C 2669 -83 3238 723 3238 2362 
C 3238 3987 2669 4774 1779 4774 
C 883 4774 320 3987 320 2362 
C 320 723 883 -83 1779 -83 
z
M 1779 390 
C 1248 390 883 986 883 2362 
C 883 3731 1248 4314 1779 4314 
C 2310 4314 2675 3731 2675 2362 
C 2675 986 2310 390 1779 390 
z
" transform="scale(0.015625)"/>
        <path id="NotoSansCJKjp-Regular-2e" d="M 890 -83 
C 1120 -83 1312 96 1312 358 
C 1312 627 1120 806 890 806 
C 653 806 467 627 467 358 
C 467 96 653 -83 890 -83 
z
" transform="scale(0.015625)"/>
       </defs>
       <use xlink:href="#NotoSansCJKjp-Regular-30"/>
       <use xlink:href="#NotoSansCJKjp-Regular-2e" x="55.499985"/>
       <use xlink:href="#NotoSansCJKjp-Regular-30" x="83.299973"/>
      </g>
     </g>
    </g>
    <g id="xtick_2">
     <g id="line2d_3">
      <path d="M 165.270938 331.905469 
L 165.270938 13.965469 
" clip-path="url(#padc6953a34)" style="fill: none; stroke-dasharray: 2.96,1.28; stroke-dashoffset: 0; stroke: #b0b0b0; stroke-opacity: 0.2; stroke-width: 0.8"/>
     </g>
     <g id="line2d_4">
      <g>
       <use xlink:href="#m0be92f633d" x="165.270938" y="331.905469" style="stroke: #000000; stroke-width: 0.8"/>
      </g>
     </g>
     <g id="text_2">
      <!-- 0.2 -->
      <g transform="translate(153.473203 348.936406) scale(0.17 -0.17)">
       <defs>
        <path id="NotoSansCJKjp-Regular-32" d="M 282 0 
L 3232 0 
L 3232 506 
L 1933 506 
C 1696 506 1408 480 1165 461 
C 2266 1504 3008 2458 3008 3398 
C 3008 4230 2477 4774 1638 4774 
C 1043 4774 634 4506 256 4090 
L 595 3757 
C 858 4070 1184 4301 1568 4301 
C 2150 4301 2432 3910 2432 3373 
C 2432 2566 1754 1632 282 346 
L 282 0 
z
" transform="scale(0.015625)"/>
       </defs>
       <use xlink:href="#NotoSansCJKjp-Regular-30"/>
       <use xlink:href="#NotoSansCJKjp-Regular-2e" x="55.499985"/>
       <use xlink:href="#NotoSansCJKjp-Regular-32" x="83.299973"/>
      </g>
     </g>
    </g>
    <g id="xtick_3">
     <g id="line2d_5">
      <path d="M 261.840937 331.905469 
L 261.840937 13.965469 
" clip-path="url(#padc6953a34)" style="fill: none; stroke-dasharray: 2.96,1.28; stroke-dashoffset: 0; stroke: #b0b0b0; stroke-opacity: 0.2; stroke-width: 0.8"/>
     </g>
     <g id="line2d_6">
      <g>
       <use xlink:href="#m0be92f633d" x="261.840937" y="331.905469" style="stroke: #000000; stroke-width: 0.8"/>
      </g>
     </g>
     <g id="text_3">
      <!-- 0.4 -->
      <g transform="translate(250.043203 348.936406) scale(0.17 -0.17)">
       <defs>
        <path id="NotoSansCJKjp-Regular-34" d="M 2176 0 
L 2726 0 
L 2726 1293 
L 3354 1293 
L 3354 1760 
L 2726 1760 
L 2726 4691 
L 2080 4691 
L 128 1677 
L 128 1293 
L 2176 1293 
L 2176 0 
z
M 2176 1760 
L 736 1760 
L 1805 3360 
C 1939 3590 2067 3827 2182 4051 
L 2208 4051 
C 2195 3814 2176 3430 2176 3200 
L 2176 1760 
z
" transform="scale(0.015625)"/>
       </defs>
       <use xlink:href="#NotoSansCJKjp-Regular-30"/>
       <use xlink:href="#NotoSansCJKjp-Regular-2e" x="55.499985"/>
       <use xlink:href="#NotoSansCJKjp-Regular-34" x="83.299973"/>
      </g>
     </g>
    </g>
    <g id="xtick_4">
     <g id="line2d_7">
      <path d="M 358.410938 331.905469 
L 358.410938 13.965469 
" clip-path="url(#padc6953a34)" style="fill: none; stroke-dasharray: 2.96,1.28; stroke-dashoffset: 0; stroke: #b0b0b0; stroke-opacity: 0.2; stroke-width: 0.8"/>
     </g>
     <g id="line2d_8">
      <g>
       <use xlink:href="#m0be92f633d" x="358.410938" y="331.905469" style="stroke: #000000; stroke-width: 0.8"/>
      </g>
     </g>
     <g id="text_4">
      <!-- 0.6 -->
      <g transform="translate(346.613203 348.936406) scale(0.17 -0.17)">
       <defs>
        <path id="NotoSansCJKjp-Regular-36" d="M 1926 -83 
C 2656 -83 3277 531 3277 1440 
C 3277 2426 2765 2912 1971 2912 
C 1606 2912 1197 2701 909 2349 
C 934 3802 1466 4294 2118 4294 
C 2400 4294 2682 4154 2861 3936 
L 3194 4294 
C 2931 4576 2579 4774 2093 4774 
C 1184 4774 358 4077 358 2240 
C 358 691 1030 -83 1926 -83 
z
M 922 1882 
C 1229 2317 1587 2477 1875 2477 
C 2445 2477 2720 2074 2720 1440 
C 2720 800 2374 378 1926 378 
C 1338 378 986 909 922 1882 
z
" transform="scale(0.015625)"/>
       </defs>
       <use xlink:href="#NotoSansCJKjp-Regular-30"/>
       <use xlink:href="#NotoSansCJKjp-Regular-2e" x="55.499985"/>
       <use xlink:href="#NotoSansCJKjp-Regular-36" x="83.299973"/>
      </g>
     </g>
    </g>
    <g id="xtick_5">
     <g id="line2d_9">
      <path d="M 454.980938 331.905469 
L 454.980938 13.965469 
" clip-path="url(#padc6953a34)" style="fill: none; stroke-dasharray: 2.96,1.28; stroke-dashoffset: 0; stroke: #b0b0b0; stroke-opacity: 0.2; stroke-width: 0.8"/>
     </g>
     <g id="line2d_10">
      <g>
       <use xlink:href="#m0be92f633d" x="454.980938" y="331.905469" style="stroke: #000000; stroke-width: 0.8"/>
      </g>
     </g>
     <g id="text_5">
      <!-- 0.8 -->
      <g transform="translate(443.183203 348.936406) scale(0.17 -0.17)">
       <defs>
        <path id="NotoSansCJKjp-Regular-38" d="M 1792 -83 
C 2669 -83 3258 448 3258 1126 
C 3258 1773 2880 2125 2470 2362 
L 2470 2394 
C 2746 2611 3091 3034 3091 3526 
C 3091 4250 2605 4762 1805 4762 
C 1075 4762 518 4282 518 3571 
C 518 3078 813 2726 1152 2490 
L 1152 2464 
C 723 2234 294 1792 294 1165 
C 294 442 922 -83 1792 -83 
z
M 2112 2547 
C 1555 2765 1050 3014 1050 3571 
C 1050 4026 1363 4326 1798 4326 
C 2298 4326 2592 3962 2592 3494 
C 2592 3149 2426 2829 2112 2547 
z
M 1798 352 
C 1235 352 813 717 813 1216 
C 813 1664 1082 2035 1459 2278 
C 2125 2010 2701 1779 2701 1146 
C 2701 678 2342 352 1798 352 
z
" transform="scale(0.015625)"/>
       </defs>
       <use xlink:href="#NotoSansCJKjp-Regular-30"/>
       <use xlink:href="#NotoSansCJKjp-Regular-2e" x="55.499985"/>
       <use xlink:href="#NotoSansCJKjp-Regular-38" x="83.299973"/>
      </g>
     </g>
    </g>
    <g id="xtick_6">
     <g id="line2d_11">
      <path d="M 551.550938 331.905469 
L 551.550938 13.965469 
" clip-path="url(#padc6953a34)" style="fill: none; stroke-dasharray: 2.96,1.28; stroke-dashoffset: 0; stroke: #b0b0b0; stroke-opacity: 0.2; stroke-width: 0.8"/>
     </g>
     <g id="line2d_12">
      <g>
       <use xlink:href="#m0be92f633d" x="551.550938" y="331.905469" style="stroke: #000000; stroke-width: 0.8"/>
      </g>
     </g>
     <g id="text_6">
      <!-- 1.0 -->
      <g transform="translate(539.753203 348.936406) scale(0.17 -0.17)">
       <defs>
        <path id="NotoSansCJKjp-Regular-31" d="M 563 0 
L 3136 0 
L 3136 486 
L 2195 486 
L 2195 4691 
L 1747 4691 
C 1491 4544 1190 4435 774 4358 
L 774 3987 
L 1613 3987 
L 1613 486 
L 563 486 
L 563 0 
z
" transform="scale(0.015625)"/>
       </defs>
       <use xlink:href="#NotoSansCJKjp-Regular-31"/>
       <use xlink:href="#NotoSansCJKjp-Regular-2e" x="55.499985"/>
       <use xlink:href="#NotoSansCJKjp-Regular-30" x="83.299973"/>
      </g>
     </g>
    </g>
    <g id="text_7">
     <!-- 训练步数（×10^6） -->
     <g transform="translate(222.535938 371.953281) scale(0.19 -0.19)">
      <defs>
       <path id="DroidSansFallback-8bad" d="M 1250 5175 
Q 1650 4675 1900 4125 
L 1425 3850 
Q 1200 4400 800 4900 
L 1250 5175 
z
M 325 3325 
L 1625 3325 
L 1625 575 
L 1950 1025 
L 2250 750 
Q 1975 225 1525 -250 
L 1150 75 
L 1150 2875 
L 325 2875 
L 325 3325 
z
M 5375 5200 
L 5875 5200 
L 5875 -575 
L 5375 -575 
L 5375 5200 
z
M 2950 5200 
L 3450 5200 
L 3450 1900 
Q 3450 375 2575 -600 
L 2175 -275 
Q 2950 600 2950 1900 
L 2950 5200 
z
M 4175 4875 
L 4650 4875 
L 4650 -100 
L 4175 -100 
L 4175 4875 
z
" transform="scale(0.015625)"/>
       <path id="DroidSansFallback-7ec3" d="M 2000 4150 
L 2450 3975 
Q 1825 2575 1075 1750 
L 2150 2075 
L 2275 1700 
Q 1475 1375 525 1200 
L 375 1600 
Q 900 2150 1375 2950 
L 525 2825 
L 425 3275 
Q 950 4000 1300 5175 
L 1775 5025 
Q 1450 3925 950 3300 
L 1600 3375 
L 2000 4150 
z
M 2175 950 
L 2275 500 
Q 1475 175 525 -50 
L 325 475 
L 2175 950 
z
M 4000 5175 
L 4475 5075 
L 4275 4350 
L 5975 4350 
L 5975 3875 
L 4100 3875 
L 3900 3350 
L 4875 3350 
L 4875 2050 
L 5900 2050 
L 5900 1625 
L 4875 1625 
L 4875 0 
Q 4875 -550 4375 -550 
L 3725 -500 
L 3600 -25 
L 4250 -75 
Q 4375 -75 4375 75 
L 4375 1625 
L 2775 1625 
L 2675 2050 
L 3150 2875 
L 2625 2875 
L 2625 3350 
L 3375 3350 
L 3575 3875 
L 2575 3875 
L 2575 4350 
L 3750 4350 
L 4000 5175 
z
M 4375 2050 
L 4375 2875 
L 3725 2875 
L 3275 2050 
L 4375 2050 
z
M 5500 1350 
Q 5875 725 6125 25 
L 5625 -200 
Q 5400 550 5075 1150 
L 5500 1350 
z
M 3100 1350 
L 3550 1075 
Q 3150 200 2725 -300 
L 2325 50 
Q 2800 650 3100 1350 
z
" transform="scale(0.015625)"/>
       <path id="DroidSansFallback-6b65" d="M 2950 5200 
L 3450 5200 
L 3450 4425 
L 5400 4425 
L 5400 3950 
L 3450 3950 
L 3450 3175 
L 6000 3175 
L 6000 2700 
L 400 2700 
L 400 3175 
L 1425 3175 
L 1425 4700 
L 1925 4700 
L 1925 3175 
L 2950 3175 
L 2950 5200 
z
M 2950 2375 
L 3450 2375 
L 3450 650 
Q 4375 1200 4975 2000 
L 5475 1800 
Q 4200 -25 825 -700 
L 600 -250 
Q 1975 0 2950 400 
L 2950 2375 
z
M 1875 2225 
L 2300 1975 
Q 1775 1050 1200 525 
L 800 900 
Q 1450 1525 1875 2225 
z
" transform="scale(0.015625)"/>
       <path id="DroidSansFallback-6570" d="M 4275 4125 
L 5950 4125 
L 5950 3650 
L 5675 3650 
Q 5525 1900 4975 1000 
Q 5425 400 6125 -100 
L 5750 -575 
Q 5175 -100 4675 550 
Q 4175 -125 3450 -600 
L 3100 -150 
Q 3850 300 4350 1025 
L 3700 2375 
L 3500 1950 
L 3100 2250 
Q 3725 3575 4000 5175 
L 4500 5025 
L 4275 4125 
z
M 5175 3650 
L 4150 3650 
L 3975 3075 
Q 4275 2175 4650 1525 
Q 4975 2225 5125 3225 
L 5125 3250 
L 5175 3650 
z
M 450 4100 
L 1750 4100 
L 1750 5150 
L 2200 5150 
L 2200 4100 
L 3400 4100 
L 3400 3675 
L 2200 3675 
L 2200 2525 
L 1750 2525 
L 1750 3300 
Q 1325 2700 750 2325 
L 425 2725 
Q 1050 3050 1525 3675 
L 450 3675 
L 450 4100 
z
M 1050 5050 
L 1375 4375 
L 975 4175 
L 675 4875 
L 1050 5050 
z
M 2900 5050 
L 3275 4875 
Q 3050 4450 2800 4225 
L 2475 4525 
Q 2725 4750 2900 5050 
z
M 2725 3450 
L 3175 2825 
L 2800 2600 
Q 2650 2950 2375 3250 
L 2725 3450 
z
M 425 2000 
L 1400 2000 
L 1575 2400 
L 2050 2350 
L 1900 2000 
L 3025 2000 
L 3025 1575 
Q 2725 925 2300 475 
L 3075 0 
L 2775 -450 
L 1925 125 
Q 1400 -325 525 -600 
L 375 -175 
Q 1025 25 1500 350 
L 625 800 
L 1150 1575 
L 425 1575 
L 425 2000 
z
M 1675 1575 
L 1300 1000 
L 1900 700 
Q 2275 1100 2500 1575 
L 1675 1575 
z
" transform="scale(0.015625)"/>
       <path id="DroidSansFallback-ff08" d="M 4100 4575 
L 4700 4575 
Q 3050 3575 3050 1750 
Q 3050 -25 4700 -1000 
L 4100 -1000 
Q 3375 -675 2912 87 
Q 2450 850 2450 1750 
Q 2450 2675 2912 3437 
Q 3375 4200 4100 4575 
z
" transform="scale(0.015625)"/>
       <path id="NotoSansCJKjp-Regular-d7" d="M 4954 346 
L 5261 653 
L 3514 2406 
L 5261 4160 
L 4954 4467 
L 3200 2714 
L 1453 4467 
L 1139 4154 
L 2893 2406 
L 1139 653 
L 1453 346 
L 3200 2099 
L 4954 346 
z
" transform="scale(0.015625)"/>
       <path id="NotoSansCJKjp-Regular-5e" d="M 435 2029 
L 941 2029 
L 1408 3290 
L 1760 4243 
L 1792 4243 
L 2144 3290 
L 2611 2029 
L 3123 2029 
L 2035 4794 
L 1517 4794 
L 435 2029 
z
" transform="scale(0.015625)"/>
       <path id="DroidSansFallback-ff09" d="M 2300 -1000 
L 1700 -1000 
Q 3350 -25 3350 1750 
Q 3350 3575 1700 4575 
L 2300 4575 
Q 3025 4200 3487 3437 
Q 3950 2675 3950 1750 
Q 3950 850 3487 87 
Q 3025 -675 2300 -1000 
z
" transform="scale(0.015625)"/>
      </defs>
      <use xlink:href="#DroidSansFallback-8bad"/>
      <use xlink:href="#DroidSansFallback-7ec3" x="100"/>
      <use xlink:href="#DroidSansFallback-6b65" x="200"/>
      <use xlink:href="#DroidSansFallback-6570" x="300"/>
      <use xlink:href="#DroidSansFallback-ff08" x="400"/>
      <use xlink:href="#NotoSansCJKjp-Regular-d7" x="500"/>
      <use xlink:href="#NotoSansCJKjp-Regular-31" x="599.999985"/>
      <use xlink:href="#NotoSansCJKjp-Regular-30" x="655.499969"/>
      <use xlink:href="#NotoSansCJKjp-Regular-5e" x="710.999954"/>
      <use xlink:href="#NotoSansCJKjp-Regular-36" x="766.499939"/>
      <use xlink:href="#DroidSansFallback-ff09" x="821.999924"/>
     </g>
    </g>
   </g>
   <g id="matplotlib.axis_2">
    <g id="ytick_1">
     <g id="line2d_13">
      <path d="M 68.700938 331.905469 
L 551.550938 331.905469 
" clip-path="url(#padc6953a34)" style="fill: none; stroke-dasharray: 2.96,1.28; stroke-dashoffset: 0; stroke: #b0b0b0; stroke-opacity: 0.2; stroke-width: 0.8"/>
     </g>
     <g id="line2d_14">
      <defs>
       <path id="mc2ad8ab56e" d="M 0 0 
L 3.5 0 
" style="stroke: #000000; stroke-width: 0.8"/>
      </defs>
      <g>
       <use xlink:href="#mc2ad8ab56e" x="68.700938" y="331.905469" style="stroke: #000000; stroke-width: 0.8"/>
      </g>
     </g>
     <g id="text_8">
      <!-- 0% -->
      <g transform="translate(40.11 338.670937) scale(0.17 -0.17)">
       <defs>
        <path id="NotoSansCJKjp-Regular-25" d="M 1312 1818 
C 1958 1818 2381 2362 2381 3309 
C 2381 4243 1958 4774 1312 4774 
C 672 4774 250 4243 250 3309 
C 250 2362 672 1818 1312 1818 
z
M 1312 2176 
C 941 2176 691 2560 691 3309 
C 691 4058 941 4416 1312 4416 
C 1683 4416 1933 4058 1933 3309 
C 1933 2560 1683 2176 1312 2176 
z
M 1446 -83 
L 1843 -83 
L 4435 4774 
L 4038 4774 
L 1446 -83 
z
M 4582 -83 
C 5222 -83 5645 454 5645 1402 
C 5645 2342 5222 2874 4582 2874 
C 3942 2874 3520 2342 3520 1402 
C 3520 454 3942 -83 4582 -83 
z
M 4582 275 
C 4211 275 3955 653 3955 1402 
C 3955 2150 4211 2515 4582 2515 
C 4947 2515 5210 2150 5210 1402 
C 5210 653 4947 275 4582 275 
z
" transform="scale(0.015625)"/>
       </defs>
       <use xlink:href="#NotoSansCJKjp-Regular-30"/>
       <use xlink:href="#NotoSansCJKjp-Regular-25" x="55.499985"/>
      </g>
     </g>
    </g>
    <g id="ytick_2">
     <g id="line2d_15">
      <path d="M 68.700938 292.162969 
L 551.550938 292.162969 
" clip-path="url(#padc6953a34)" style="fill: none; stroke-dasharray: 2.96,1.28; stroke-dashoffset: 0; stroke: #b0b0b0; stroke-opacity: 0.2; stroke-width: 0.8"/>
     </g>
     <g id="line2d_16">
      <g>
       <use xlink:href="#mc2ad8ab56e" x="68.700938" y="292.162969" style="stroke: #000000; stroke-width: 0.8"/>
      </g>
     </g>
     <g id="text_9">
      <!-- 2% -->
      <g transform="translate(40.11 298.928437) scale(0.17 -0.17)">
       <use xlink:href="#NotoSansCJKjp-Regular-32"/>
       <use xlink:href="#NotoSansCJKjp-Regular-25" x="55.499985"/>
      </g>
     </g>
    </g>
    <g id="ytick_3">
     <g id="line2d_17">
      <path d="M 68.700938 252.420469 
L 551.550938 252.420469 
" clip-path="url(#padc6953a34)" style="fill: none; stroke-dasharray: 2.96,1.28; stroke-dashoffset: 0; stroke: #b0b0b0; stroke-opacity: 0.2; stroke-width: 0.8"/>
     </g>
     <g id="line2d_18">
      <g>
       <use xlink:href="#mc2ad8ab56e" x="68.700938" y="252.420469" style="stroke: #000000; stroke-width: 0.8"/>
      </g>
     </g>
     <g id="text_10">
      <!-- 5% -->
      <g transform="translate(40.11 259.185937) scale(0.17 -0.17)">
       <defs>
        <path id="NotoSansCJKjp-Regular-35" d="M 1677 -83 
C 2464 -83 3213 499 3213 1523 
C 3213 2560 2573 3021 1798 3021 
C 1517 3021 1306 2950 1094 2835 
L 1216 4192 
L 2982 4192 
L 2982 4691 
L 704 4691 
L 550 2502 
L 864 2304 
C 1133 2483 1331 2579 1645 2579 
C 2234 2579 2618 2182 2618 1510 
C 2618 826 2176 403 1619 403 
C 1075 403 730 653 467 922 
L 173 538 
C 493 224 941 -83 1677 -83 
z
" transform="scale(0.015625)"/>
       </defs>
       <use xlink:href="#NotoSansCJKjp-Regular-35"/>
       <use xlink:href="#NotoSansCJKjp-Regular-25" x="55.499985"/>
      </g>
     </g>
    </g>
    <g id="ytick_4">
     <g id="line2d_19">
      <path d="M 68.700938 212.677969 
L 551.550938 212.677969 
" clip-path="url(#padc6953a34)" style="fill: none; stroke-dasharray: 2.96,1.28; stroke-dashoffset: 0; stroke: #b0b0b0; stroke-opacity: 0.2; stroke-width: 0.8"/>
     </g>
     <g id="line2d_20">
      <g>
       <use xlink:href="#mc2ad8ab56e" x="68.700938" y="212.677969" style="stroke: #000000; stroke-width: 0.8"/>
      </g>
     </g>
     <g id="text_11">
      <!-- 8% -->
      <g transform="translate(40.11 219.443437) scale(0.17 -0.17)">
       <use xlink:href="#NotoSansCJKjp-Regular-38"/>
       <use xlink:href="#NotoSansCJKjp-Regular-25" x="55.499985"/>
      </g>
     </g>
    </g>
    <g id="ytick_5">
     <g id="line2d_21">
      <path d="M 68.700938 172.935469 
L 551.550938 172.935469 
" clip-path="url(#padc6953a34)" style="fill: none; stroke-dasharray: 2.96,1.28; stroke-dashoffset: 0; stroke: #b0b0b0; stroke-opacity: 0.2; stroke-width: 0.8"/>
     </g>
     <g id="line2d_22">
      <g>
       <use xlink:href="#mc2ad8ab56e" x="68.700938" y="172.935469" style="stroke: #000000; stroke-width: 0.8"/>
      </g>
     </g>
     <g id="text_12">
      <!-- 10% -->
      <g transform="translate(30.675 179.700937) scale(0.17 -0.17)">
       <use xlink:href="#NotoSansCJKjp-Regular-31"/>
       <use xlink:href="#NotoSansCJKjp-Regular-30" x="55.499985"/>
       <use xlink:href="#NotoSansCJKjp-Regular-25" x="110.999969"/>
      </g>
     </g>
    </g>
    <g id="ytick_6">
     <g id="line2d_23">
      <path d="M 68.700938 133.192969 
L 551.550938 133.192969 
" clip-path="url(#padc6953a34)" style="fill: none; stroke-dasharray: 2.96,1.28; stroke-dashoffset: 0; stroke: #b0b0b0; stroke-opacity: 0.2; stroke-width: 0.8"/>
     </g>
     <g id="line2d_24">
      <g>
       <use xlink:href="#mc2ad8ab56e" x="68.700938" y="133.192969" style="stroke: #000000; stroke-width: 0.8"/>
      </g>
     </g>
     <g id="text_13">
      <!-- 12% -->
      <g transform="translate(30.675 139.958437) scale(0.17 -0.17)">
       <use xlink:href="#NotoSansCJKjp-Regular-31"/>
       <use xlink:href="#NotoSansCJKjp-Regular-32" x="55.499985"/>
       <use xlink:href="#NotoSansCJKjp-Regular-25" x="110.999969"/>
      </g>
     </g>
    </g>
    <g id="ytick_7">
     <g id="line2d_25">
      <path d="M 68.700938 93.450469 
L 551.550938 93.450469 
" clip-path="url(#padc6953a34)" style="fill: none; stroke-dasharray: 2.96,1.28; stroke-dashoffset: 0; stroke: #b0b0b0; stroke-opacity: 0.2; stroke-width: 0.8"/>
     </g>
     <g id="line2d_26">
      <g>
       <use xlink:href="#mc2ad8ab56e" x="68.700938" y="93.450469" style="stroke: #000000; stroke-width: 0.8"/>
      </g>
     </g>
     <g id="text_14">
      <!-- 15% -->
      <g transform="translate(30.675 100.215937) scale(0.17 -0.17)">
       <use xlink:href="#NotoSansCJKjp-Regular-31"/>
       <use xlink:href="#NotoSansCJKjp-Regular-35" x="55.499985"/>
       <use xlink:href="#NotoSansCJKjp-Regular-25" x="110.999969"/>
      </g>
     </g>
    </g>
    <g id="ytick_8">
     <g id="line2d_27">
      <path d="M 68.700938 53.707969 
L 551.550938 53.707969 
" clip-path="url(#padc6953a34)" style="fill: none; stroke-dasharray: 2.96,1.28; stroke-dashoffset: 0; stroke: #b0b0b0; stroke-opacity: 0.2; stroke-width: 0.8"/>
     </g>
     <g id="line2d_28">
      <g>
       <use xlink:href="#mc2ad8ab56e" x="68.700938" y="53.707969" style="stroke: #000000; stroke-width: 0.8"/>
      </g>
     </g>
     <g id="text_15">
      <!-- 18% -->
      <g transform="translate(30.675 60.473437) scale(0.17 -0.17)">
       <use xlink:href="#NotoSansCJKjp-Regular-31"/>
       <use xlink:href="#NotoSansCJKjp-Regular-38" x="55.499985"/>
       <use xlink:href="#NotoSansCJKjp-Regular-25" x="110.999969"/>
      </g>
     </g>
    </g>
    <g id="ytick_9">
     <g id="line2d_29">
      <path d="M 68.700938 13.965469 
L 551.550938 13.965469 
" clip-path="url(#padc6953a34)" style="fill: none; stroke-dasharray: 2.96,1.28; stroke-dashoffset: 0; stroke: #b0b0b0; stroke-opacity: 0.2; stroke-width: 0.8"/>
     </g>
     <g id="line2d_30">
      <g>
       <use xlink:href="#mc2ad8ab56e" x="68.700938" y="13.965469" style="stroke: #000000; stroke-width: 0.8"/>
      </g>
     </g>
     <g id="text_16">
      <!-- 20% -->
      <g transform="translate(30.675 20.730937) scale(0.17 -0.17)">
       <use xlink:href="#NotoSansCJKjp-Regular-32"/>
       <use xlink:href="#NotoSansCJKjp-Regular-30" x="55.499985"/>
       <use xlink:href="#NotoSansCJKjp-Regular-25" x="110.999969"/>
      </g>
     </g>
    </g>
    <g id="text_17">
     <!-- 评估泄露率 -->
     <g transform="translate(22.322813 220.435469) rotate(-90) scale(0.19 -0.19)">
      <defs>
       <path id="DroidSansFallback-8bc4" d="M 1275 5175 
Q 1700 4675 1975 4125 
L 1500 3850 
Q 1250 4400 825 4900 
L 1275 5175 
z
M 325 3325 
L 1675 3325 
L 1675 425 
L 2200 1000 
L 2525 700 
Q 2175 225 1575 -250 
L 1200 75 
L 1200 2875 
L 325 2875 
L 325 3325 
z
M 2375 4950 
L 5875 4950 
L 5875 4475 
L 4300 4475 
L 4300 2050 
L 6075 2050 
L 6075 1575 
L 4300 1575 
L 4300 -575 
L 3825 -575 
L 3825 1575 
L 2050 1575 
L 2050 2050 
L 3825 2050 
L 3825 4475 
L 2375 4475 
L 2375 4950 
z
M 5375 4125 
L 5850 3950 
Q 5550 2950 5150 2275 
L 4725 2525 
Q 5150 3325 5375 4125 
z
M 2900 4125 
Q 3250 3275 3375 2425 
L 2900 2300 
Q 2775 3200 2400 4000 
L 2900 4125 
z
" transform="scale(0.015625)"/>
       <path id="DroidSansFallback-4f30" d="M 1575 5175 
L 2075 5025 
L 1625 3875 
L 1625 -575 
L 1125 -575 
L 1125 2925 
L 500 2050 
L 250 2550 
Q 1175 3800 1575 5175 
z
M 2025 3925 
L 3775 3925 
L 3775 5175 
L 4275 5175 
L 4275 3925 
L 6050 3925 
L 6050 3475 
L 4275 3475 
L 4275 2225 
L 5675 2225 
L 5675 -575 
L 5175 -575 
L 5175 -150 
L 2975 -150 
L 2975 -575 
L 2475 -575 
L 2475 2225 
L 3775 2225 
L 3775 3475 
L 2025 3475 
L 2025 3925 
z
M 2975 325 
L 5175 325 
L 5175 1750 
L 2975 1750 
L 2975 325 
z
" transform="scale(0.015625)"/>
       <path id="DroidSansFallback-6cc4" d="M 900 5125 
Q 1450 4825 1900 4400 
L 1575 3975 
Q 1075 4450 550 4775 
L 900 5125 
z
M 650 3575 
L 1575 2950 
L 1225 2525 
Q 800 2950 300 3225 
L 650 3575 
z
M 1225 2000 
L 1650 1700 
Q 1350 525 775 -575 
L 275 -225 
Q 875 825 1225 2000 
z
M 1825 3500 
L 2450 3500 
L 2450 4800 
L 2950 4800 
L 2950 3500 
L 3625 3500 
L 3625 5050 
L 4100 5050 
L 4100 3500 
L 4900 3500 
L 4900 5050 
L 5375 5050 
L 5375 3500 
L 6075 3500 
L 6075 3025 
L 5375 3025 
L 5375 1175 
L 3625 1175 
L 3625 3025 
L 2950 3025 
L 2950 250 
L 6000 250 
L 6000 -225 
L 2450 -225 
L 2450 3025 
L 1825 3025 
L 1825 3500 
z
M 4900 1625 
L 4900 3025 
L 4100 3025 
L 4100 1625 
L 4900 1625 
z
" transform="scale(0.015625)"/>
       <path id="DroidSansFallback-9732" d="M 750 5150 
L 5650 5150 
L 5650 4700 
L 3450 4700 
L 3450 4450 
L 6000 4450 
L 6000 3450 
L 5475 3450 
L 5475 4050 
L 3450 4050 
L 3450 2825 
L 2950 2825 
L 2950 4050 
L 925 4050 
L 925 3475 
L 400 3475 
L 400 4450 
L 2950 4450 
L 2950 4700 
L 750 4700 
L 750 5150 
z
M 1150 3850 
L 2725 3850 
L 2725 3475 
L 1150 3475 
L 1150 3850 
z
M 3650 3850 
L 5250 3850 
L 5250 3450 
L 3650 3450 
L 3650 3850 
z
M 1125 3275 
L 2700 3275 
L 2700 2875 
L 1125 2875 
L 1125 3275 
z
M 3650 3250 
L 5250 3250 
L 5250 2875 
L 3650 2875 
L 3650 3250 
z
M 3650 2725 
L 4075 2625 
L 4000 2475 
L 5625 2475 
L 5625 2125 
Q 5375 1725 4925 1475 
L 6050 1250 
L 5875 850 
Q 5050 975 4375 1250 
Q 3750 1025 2925 900 
L 2775 1300 
L 3850 1475 
L 3450 1750 
L 3175 1525 
L 2825 1825 
Q 3375 2125 3650 2725 
z
M 3700 2025 
L 4400 1650 
L 4475 1675 
Q 4925 1850 5150 2125 
L 3800 2125 
L 3700 2025 
z
M 675 2650 
L 2700 2650 
L 2700 1375 
L 1975 1375 
L 1975 950 
L 2675 950 
L 2675 575 
L 1975 575 
L 1975 50 
L 2800 175 
L 2875 -200 
L 375 -575 
L 300 -150 
L 650 -125 
L 650 1050 
L 1100 1050 
L 1100 -75 
L 1525 -25 
L 1525 1375 
L 675 1375 
L 675 2650 
z
M 1125 1750 
L 2250 1750 
L 2250 2275 
L 1125 2275 
L 1125 1750 
z
M 5500 850 
L 5500 -575 
L 5050 -575 
L 5050 -350 
L 3700 -350 
L 3700 -575 
L 3250 -575 
L 3250 850 
L 5500 850 
z
M 3700 25 
L 5050 25 
L 5050 500 
L 3700 500 
L 3700 25 
z
" transform="scale(0.015625)"/>
       <path id="DroidSansFallback-7387" d="M 3275 5200 
Q 3475 4900 3575 4550 
L 6050 4550 
L 6050 4075 
L 350 4075 
L 350 4550 
L 2950 4550 
L 2750 5025 
L 3275 5200 
z
M 2975 1625 
L 3450 1625 
L 3450 1100 
L 6000 1100 
L 6000 650 
L 3450 650 
L 3450 -575 
L 2975 -575 
L 2975 650 
L 400 650 
L 400 1100 
L 2975 1100 
L 2975 1625 
z
M 2925 4450 
L 3375 4325 
Q 3000 3550 2700 3200 
L 3475 3275 
L 3900 3800 
L 4350 3650 
Q 3625 2675 2725 2025 
L 3875 2250 
L 3650 2550 
L 4050 2750 
Q 4475 2250 4775 1625 
L 4325 1425 
L 4100 1900 
L 2050 1525 
L 1925 1925 
Q 2525 2300 3075 2850 
L 2175 2725 
L 2100 3150 
Q 2625 3775 2925 4450 
z
M 1100 3975 
Q 1500 3625 1775 3200 
L 1325 2950 
Q 1075 3350 650 3700 
L 1100 3975 
z
M 5325 3975 
L 5750 3725 
Q 5325 3175 4900 2850 
L 4525 3200 
Q 5025 3575 5325 3975 
z
M 1625 2725 
L 2000 2450 
Q 1550 1900 875 1425 
L 500 1800 
Q 1200 2275 1625 2725 
z
M 4925 2650 
Q 5450 2350 5900 1925 
L 5525 1475 
Q 5100 1975 4600 2300 
L 4925 2650 
z
" transform="scale(0.015625)"/>
      </defs>
      <use xlink:href="#DroidSansFallback-8bc4"/>
      <use xlink:href="#DroidSansFallback-4f30" x="100"/>
      <use xlink:href="#DroidSansFallback-6cc4" x="200"/>
      <use xlink:href="#DroidSansFallback-9732" x="300"/>
      <use xlink:href="#DroidSansFallback-7387" x="400"/>
     </g>
    </g>
   </g>
   <g id="line2d_31">
    <path d="M 73.529438 232.637535 
L 78.357938 191.941215 
L 83.186438 189.369434 
L 88.014938 178.576431 
L 92.843438 166.990415 
L 97.671938 156.13908 
L 102.500438 149.304992 
L 107.328938 135.806367 
L 112.157438 134.750177 
L 116.985938 116.595519 
L 121.814438 112.302721 
L 126.642938 104.517942 
L 131.471438 98.606768 
L 136.299937 97.349278 
L 141.128438 86.891297 
L 145.956938 84.791735 
L 150.785438 79.334135 
L 155.613938 79.262048 
L 160.442438 84.92009 
L 165.270938 80.120861 
L 170.099438 74.494469 
L 174.927938 64.520309 
L 179.756438 64.693171 
L 184.584938 67.498248 
L 189.413438 73.873423 
L 194.241938 81.483394 
L 199.070438 79.147435 
L 203.898938 78.882059 
L 208.727438 77.406786 
L 213.555937 73.500195 
L 218.384438 69.277729 
L 223.212938 64.417709 
L 228.041438 66.155205 
L 232.869938 64.150958 
L 237.698438 56.836176 
L 242.526938 50.959405 
L 247.355438 54.395998 
L 252.183938 55.651945 
L 257.012438 52.401791 
L 261.840937 51.878865 
L 266.669438 47.663606 
L 271.497938 56.693452 
L 276.326437 45.002054 
L 281.154938 41.863069 
L 285.983438 47.940302 
L 290.811937 51.784785 
L 295.640438 59.766634 
L 300.468938 63.94753 
L 305.297438 65.308124 
L 310.125938 68.652259 
L 314.954438 60.887346 
L 319.782938 60.151745 
L 324.611438 67.014284 
L 329.439938 69.905189 
L 334.268438 66.960717 
L 339.096938 67.207479 
L 343.925437 66.934991 
L 348.753938 69.445233 
L 353.582438 69.090276 
L 358.410937 71.596949 
L 363.239438 66.363701 
L 368.067938 59.039604 
L 372.896438 64.882904 
L 377.724938 67.916294 
L 382.553438 72.236045 
L 387.381938 67.574767 
L 392.210438 67.265551 
L 397.038938 57.343076 
L 401.867437 63.497335 
L 406.695938 64.408375 
L 411.524438 62.684791 
L 416.352937 56.576426 
L 421.181438 57.367043 
L 426.009938 63.448252 
L 430.838438 63.728321 
L 435.666938 62.637969 
L 440.495438 59.537052 
L 445.323938 54.626627 
L 450.152438 46.003371 
L 454.980938 49.582301 
L 459.809438 53.969118 
L 464.637938 59.824893 
L 469.466437 65.872277 
L 474.294938 67.21703 
L 479.123438 59.242374 
L 483.951938 54.290763 
L 488.780438 59.125227 
L 493.608938 58.141918 
L 498.437438 60.1184 
L 503.265938 61.014067 
L 508.094438 50.727593 
L 512.922937 54.081388 
L 517.751438 47.844216 
L 522.579938 53.393988 
L 527.408437 51.535409 
L 532.236938 49.650728 
L 537.065438 44.951749 
L 541.893937 55.453888 
L 546.722438 56.921986 
L 551.550938 51.919801 
" clip-path="url(#padc6953a34)" style="fill: none; stroke: #e45756; stroke-width: 2.8; stroke-linecap: square"/>
   </g>
   <g id="line2d_32">
    <path d="M 73.529438 232.637535 
L 78.357938 232.390249 
L 83.186438 233.686737 
L 88.014938 231.992117 
L 92.843438 230.431632 
L 97.671938 225.141263 
L 102.500438 224.901743 
L 107.328938 227.371002 
L 112.157438 222.845942 
L 116.985938 219.444595 
L 121.814438 221.258462 
L 126.642938 221.76049 
L 131.471438 223.943321 
L 136.299937 223.046409 
L 141.128438 220.154915 
L 145.956938 215.185684 
L 150.785438 219.191776 
L 155.613938 218.134138 
L 160.442438 217.040958 
L 165.270938 217.576142 
L 170.099438 221.661128 
L 174.927938 213.609162 
L 179.756438 210.495613 
L 184.584938 214.758752 
L 189.413438 217.50045 
L 194.241938 211.878172 
L 199.070438 216.426975 
L 203.898938 216.423004 
L 208.727438 218.574358 
L 213.555937 217.896402 
L 218.384438 221.984689 
L 223.212938 218.52816 
L 228.041438 218.632011 
L 232.869938 217.065123 
L 237.698438 219.505531 
L 242.526938 215.484405 
L 247.355438 217.023085 
L 252.183938 218.47855 
L 257.012438 215.725902 
L 261.840937 218.618172 
L 266.669438 218.571715 
L 271.497938 222.733777 
L 276.326437 221.816513 
L 281.154938 222.969268 
L 285.983438 227.645395 
L 290.811937 231.006069 
L 295.640438 226.223482 
L 300.468938 229.302428 
L 305.297438 229.671265 
L 310.125938 231.310305 
L 314.954438 232.962075 
L 319.782938 236.356308 
L 324.611438 234.147444 
L 329.439938 234.9856 
L 334.268438 234.008933 
L 339.096938 227.830934 
L 343.925437 228.382247 
L 348.753938 230.008883 
L 353.582438 223.418374 
L 358.410937 224.269637 
L 363.239438 224.823814 
L 368.067938 223.202973 
L 372.896438 224.146429 
L 377.724938 224.324333 
L 382.553438 224.307813 
L 387.381938 225.352745 
L 392.210438 227.352984 
L 397.038938 230.389633 
L 401.867437 230.86171 
L 406.695938 231.887132 
L 411.524438 234.611673 
L 416.352937 237.840946 
L 421.181438 236.366785 
L 426.009938 236.62974 
L 430.838438 239.869166 
L 435.666938 238.156856 
L 440.495438 236.333164 
L 445.323938 233.985308 
L 450.152438 235.652191 
L 454.980938 233.549065 
L 459.809438 237.167212 
L 464.637938 237.597411 
L 469.466437 238.019917 
L 474.294938 237.870272 
L 479.123438 233.355085 
L 483.951938 235.968157 
L 488.780438 235.882381 
L 493.608938 234.957343 
L 498.437438 234.619383 
L 503.265938 238.307131 
L 508.094438 236.009165 
L 512.922937 241.324269 
L 517.751438 241.868662 
L 522.579938 241.157509 
L 527.408437 242.566419 
L 532.236938 244.929564 
L 537.065438 243.347094 
L 541.893937 239.767945 
L 546.722438 238.454351 
L 551.550938 237.484076 
" clip-path="url(#padc6953a34)" style="fill: none; stroke: #4c78a8; stroke-width: 2.8; stroke-linecap: square"/>
   </g>
   <g id="line2d_33">
    <path d="M 73.529438 171.522402 
L 78.357938 178.269795 
L 83.186438 188.510996 
L 88.014938 194.51335 
L 92.843438 196.806722 
L 97.671938 201.520257 
L 102.500438 208.553244 
L 107.328938 213.717154 
L 112.157438 219.353818 
L 116.985938 221.247417 
L 121.814438 225.636482 
L 126.642938 225.842014 
L 131.471438 229.736293 
L 136.299937 235.749337 
L 141.128438 232.188104 
L 145.956938 234.74124 
L 150.785438 236.403183 
L 155.613938 240.336472 
L 160.442438 240.697031 
L 165.270938 245.225408 
L 170.099438 248.029188 
L 174.927938 251.259122 
L 179.756438 247.52465 
L 184.584938 245.258752 
L 189.413438 248.518444 
L 194.241938 252.79458 
L 199.070438 256.961042 
L 203.898938 260.145631 
L 208.727438 258.525275 
L 213.555937 253.392981 
L 218.384438 255.168043 
L 223.212938 255.317206 
L 228.041438 258.560199 
L 232.869938 262.185426 
L 237.698438 264.91823 
L 242.526938 262.114081 
L 247.355438 265.772513 
L 252.183938 266.556908 
L 257.012438 268.322664 
L 261.840937 271.218931 
L 266.669438 272.871752 
L 271.497938 271.92175 
L 276.326437 273.468962 
L 281.154938 274.331553 
L 285.983438 274.683964 
L 290.811937 272.316308 
L 295.640438 273.859391 
L 300.468938 274.329672 
L 305.297438 272.032772 
L 310.125938 265.938321 
L 314.954438 269.850209 
L 319.782938 270.544775 
L 324.611438 271.028578 
L 329.439938 272.453147 
L 334.268438 273.982546 
L 339.096938 272.108952 
L 343.925437 273.77875 
L 348.753938 274.681015 
L 353.582438 276.658834 
L 358.410937 277.979624 
L 363.239438 278.603108 
L 368.067938 281.213191 
L 372.896438 279.888292 
L 377.724938 278.130657 
L 382.553438 278.421098 
L 387.381938 278.929782 
L 392.210438 279.56423 
L 397.038938 279.322721 
L 401.867437 278.292849 
L 406.695938 278.743704 
L 411.524438 280.597867 
L 416.352937 278.521987 
L 421.181438 277.112942 
L 426.009938 273.689875 
L 430.838438 273.717861 
L 435.666938 274.414255 
L 440.495438 273.98121 
L 445.323938 274.015389 
L 450.152438 275.247257 
L 454.980938 277.451065 
L 459.809438 276.361072 
L 464.637938 277.005105 
L 469.466437 277.019508 
L 474.294938 276.891164 
L 479.123438 277.305555 
L 483.951938 274.887699 
L 488.780438 275.325803 
L 493.608938 273.070596 
L 498.437438 274.96217 
L 503.265938 278.077653 
L 508.094438 278.373395 
L 512.922937 280.653182 
L 517.751438 281.680518 
L 522.579938 281.086073 
L 527.408437 276.135239 
L 532.236938 279.733969 
L 537.065438 279.864079 
L 541.893937 278.179518 
L 546.722438 277.687886 
L 551.550938 278.093258 
" clip-path="url(#padc6953a34)" style="fill: none; stroke: #54a24b; stroke-width: 2.8; stroke-linecap: square"/>
   </g>
   <g id="patch_3">
    <path d="M 68.700938 331.905469 
L 68.700938 13.965469 
" style="fill: none; stroke: #000000; stroke-width: 1.2; stroke-linejoin: miter; stroke-linecap: square"/>
   </g>
   <g id="patch_4">
    <path d="M 551.550938 331.905469 
L 551.550938 13.965469 
" style="fill: none; stroke: #000000; stroke-width: 1.2; stroke-linejoin: miter; stroke-linecap: square"/>
   </g>
   <g id="patch_5">
    <path d="M 68.700938 331.905469 
L 551.550938 331.905469 
" style="fill: none; stroke: #000000; stroke-width: 1.2; stroke-linejoin: miter; stroke-linecap: square"/>
   </g>
   <g id="patch_6">
    <path d="M 68.700938 13.965469 
L 551.550938 13.965469 
" style="fill: none; stroke: #000000; stroke-width: 1.2; stroke-linejoin: miter; stroke-linecap: square"/>
   </g>
   <g id="legend_1">
    <g id="patch_7">
     <path d="M 414.210938 207.060469 
L 541.750938 207.060469 
Q 544.550938 207.060469 544.550938 204.260469 
L 544.550938 141.610469 
Q 544.550938 138.810469 541.750938 138.810469 
L 414.210938 138.810469 
Q 411.410938 138.810469 411.410938 141.610469 
L 411.410938 204.260469 
Q 411.410938 207.060469 414.210938 207.060469 
z
" style="fill: #ffffff; opacity: 0.9; stroke: #bfbfbf; stroke-linejoin: miter"/>
    </g>
    <g id="line2d_34">
     <path d="M 417.010938 150.653594 
L 436.610938 150.653594 
L 456.210938 150.653594 
" style="fill: none; stroke: #e45756; stroke-width: 2.8; stroke-linecap: square"/>
    </g>
    <g id="text_18">
     <!-- 惩罚系数=2 -->
     <g transform="translate(467.410938 155.553594) scale(0.14 -0.14)">
      <defs>
       <path id="DroidSansFallback-60e9" d="M 3275 1700 
Q 3650 1250 3900 700 
L 3425 500 
Q 3175 1050 2825 1475 
L 3275 1700 
z
M 5350 1525 
Q 5825 850 6125 50 
L 5600 -175 
Q 5325 650 4875 1300 
L 5350 1525 
z
M 1800 1500 
L 2300 1500 
L 2300 300 
Q 2300 150 2375 87 
Q 2450 25 2875 25 
L 3825 50 
Q 4200 50 4287 187 
Q 4375 325 4425 800 
L 4925 575 
Q 4775 -225 4525 -325 
Q 4175 -450 2650 -450 
Q 1850 -450 1800 25 
L 1800 1500 
z
M 1025 1425 
L 1450 1150 
Q 1050 200 625 -350 
L 225 0 
Q 725 650 1025 1425 
z
M 1850 5225 
L 2275 5000 
Q 1675 4450 750 3975 
L 400 4325 
Q 1275 4750 1850 5225 
z
M 2525 4850 
L 5850 4850 
L 5850 4400 
L 4425 4400 
L 4425 3725 
L 5650 3725 
L 5650 3250 
L 4425 3250 
L 4425 2325 
L 5975 2325 
L 5975 1875 
L 2150 1875 
L 2150 2325 
L 2675 2325 
L 2675 3875 
L 3150 3875 
L 3150 2325 
L 3975 2325 
L 3975 4400 
L 2525 4400 
L 2525 4850 
z
M 1900 4400 
L 2350 4150 
Q 2100 3775 1675 3375 
L 1675 1550 
L 1200 1550 
L 1200 3000 
L 700 2650 
L 375 3075 
Q 1400 3700 1900 4400 
z
" transform="scale(0.015625)"/>
       <path id="DroidSansFallback-7f5a" d="M 850 5000 
L 5525 5000 
L 5525 3300 
L 850 3300 
L 850 5000 
z
M 1350 3725 
L 2275 3725 
L 2275 4575 
L 1350 4575 
L 1350 3725 
z
M 2725 4575 
L 2725 3725 
L 3650 3725 
L 3650 4575 
L 2725 4575 
z
M 4100 4575 
L 4100 3725 
L 5025 3725 
L 5025 4575 
L 4100 4575 
z
M 1600 3125 
L 2475 2575 
L 2125 2175 
L 1300 2750 
L 1600 3125 
z
M 5025 2950 
L 5500 2950 
L 5500 125 
Q 5500 -250 5350 -400 
Q 5200 -550 4725 -550 
L 3750 -475 
L 3625 50 
L 4650 -50 
Q 5025 -50 5025 225 
L 5025 2950 
z
M 3550 2500 
L 4050 2500 
L 4050 450 
L 3550 450 
L 3550 2500 
z
M 650 1925 
L 2025 1925 
L 2025 125 
L 2475 600 
L 2800 300 
Q 2475 -150 1925 -600 
L 1575 -275 
L 1575 1475 
L 650 1475 
L 650 1925 
z
" transform="scale(0.015625)"/>
       <path id="DroidSansFallback-7cfb" d="M 4225 4175 
L 4675 4000 
Q 3300 2650 1800 1900 
L 4650 2200 
L 4125 2750 
L 4575 3025 
Q 5350 2300 5825 1450 
L 5350 1175 
L 4925 1850 
L 3525 1650 
L 3525 0 
Q 3500 -575 2925 -575 
L 2275 -500 
L 2175 0 
L 2850 -75 
Q 2975 -75 2975 225 
L 2975 1600 
L 1000 1425 
L 875 1825 
Q 1800 2275 2650 2875 
L 1075 2675 
L 975 3125 
Q 1825 3650 2400 4450 
L 950 4400 
L 675 4850 
Q 3850 4950 5150 5125 
L 5525 4700 
L 3050 4475 
Q 2500 3675 1750 3150 
L 3275 3350 
L 4225 4175 
z
M 1900 1250 
L 2225 850 
Q 1475 75 575 -400 
L 325 75 
Q 1125 450 1900 1250 
z
M 4475 1250 
Q 5250 600 5725 -125 
L 5250 -400 
Q 4800 300 4025 950 
L 4475 1250 
z
" transform="scale(0.015625)"/>
       <path id="NotoSansCJKjp-Regular-3d" d="M 243 2912 
L 3315 2912 
L 3315 3347 
L 243 3347 
L 243 2912 
z
M 243 1376 
L 3315 1376 
L 3315 1811 
L 243 1811 
L 243 1376 
z
" transform="scale(0.015625)"/>
      </defs>
      <use xlink:href="#DroidSansFallback-60e9"/>
      <use xlink:href="#DroidSansFallback-7f5a" x="100"/>
      <use xlink:href="#DroidSansFallback-7cfb" x="200"/>
      <use xlink:href="#DroidSansFallback-6570" x="300"/>
      <use xlink:href="#NotoSansCJKjp-Regular-3d" x="400"/>
      <use xlink:href="#NotoSansCJKjp-Regular-32" x="455.499985"/>
     </g>
    </g>
    <g id="line2d_35">
     <path d="M 417.010938 172.003594 
L 436.610938 172.003594 
L 456.210938 172.003594 
" style="fill: none; stroke: #4c78a8; stroke-width: 2.8; stroke-linecap: square"/>
    </g>
    <g id="text_19">
     <!-- 惩罚系数=5 -->
     <g transform="translate(467.410938 176.903594) scale(0.14 -0.14)">
      <use xlink:href="#DroidSansFallback-60e9"/>
      <use xlink:href="#DroidSansFallback-7f5a" x="100"/>
      <use xlink:href="#DroidSansFallback-7cfb" x="200"/>
      <use xlink:href="#DroidSansFallback-6570" x="300"/>
      <use xlink:href="#NotoSansCJKjp-Regular-3d" x="400"/>
      <use xlink:href="#NotoSansCJKjp-Regular-35" x="455.499985"/>
     </g>
    </g>
    <g id="line2d_36">
     <path d="M 417.010938 193.353594 
L 436.610938 193.353594 
L 456.210938 193.353594 
" style="fill: none; stroke: #54a24b; stroke-width: 2.8; stroke-linecap: square"/>
    </g>
    <g id="text_20">
     <!-- 惩罚系数=8 -->
     <g transform="translate(467.410938 198.253594) scale(0.14 -0.14)">
      <use xlink:href="#DroidSansFallback-60e9"/>
      <use xlink:href="#DroidSansFallback-7f5a" x="100"/>
      <use xlink:href="#DroidSansFallback-7cfb" x="200"/>
      <use xlink:href="#DroidSansFallback-6570" x="300"/>
      <use xlink:href="#NotoSansCJKjp-Regular-3d" x="400"/>
      <use xlink:href="#NotoSansCJKjp-Regular-38" x="455.499985"/>
     </g>
    </g>
   </g>
  </g>
 </g>
 <defs>
  <clipPath id="padc6953a34">
   <rect x="68.700938" y="13.965469" width="482.85" height="317.94"/>
  </clipPath>
 </defs>
</svg>
