<?xml version="1.0" encoding="utf-8" standalone="no"?>
<!DOCTYPE svg PUBLIC "-//W3C//DTD SVG 1.1//EN"
  "http://www.w3.org/Graphics/SVG/1.1/DTD/svg11.dtd">
<svg xmlns:xlink="http://www.w3.org/1999/xlink" width="570.552734pt" height="383.505469pt" viewBox="0 0 570.552734 383.505469" xmlns="http://www.w3.org/2000/svg" version="1.1">
 <metadata>
  <rdf:RDF xmlns:dc="http://purl.org/dc/elements/1.1/" xmlns:cc="http://creativecommons.org/ns#" xmlns:rdf="http://www.w3.org/1999/02/22-rdf-syntax-ns#">
   <cc:Work>
    <dc:type rdf:resource="http://purl.org/dc/dcmitype/StillImage"/>
    <dc:date>2026-04-03T21:31:02.412668</dc:date>
    <dc:format>image/svg+xml</dc:format>
    <dc:creator>
     <cc:Agent>
      <dc:title>Matplotlib v3.7.2, https://matplotlib.org/</dc:title>
     </cc:Agent>
    </dc:creator>
   </cc:Work>
  </rdf:RDF>
 </metadata>
 <defs>
  <style type="text/css">*{stroke-linejoin: round; stroke-linecap: butt}</style>
 </defs>
 <g id="figure_1">
  <g id="patch_1">
   <path d="M -0 383.505469 
L 570.552734 383.505469 
L 570.552734 0 
L -0 0 
z
" style="fill: #ffffff"/>
  </g>
  <g id="axes_1">
   <g id="patch_2">
    <path d="M 53.045 331.905469 
L 551.555 331.905469 
L 551.555 13.965469 
L 53.045 13.965469 
z
" style="fill: #ffffff"/>
   </g>
   <g id="matplotlib.axis_1">
    <g id="xtick_1">
     <g id="line2d_1">
      <path d="M 53.045 331.905469 
L 53.045 13.965469 
" clip-path="url(#pa687a0fb68)" style="fill: none; stroke-dasharray: 2.96,1.28; stroke-dashoffset: 0; stroke: #b0b0b0; stroke-opacity: 0.2; stroke-width: 0.8"/>
     </g>
     <g id="line2d_2">
      <defs>
       <path id="mfc05646e4e" d="M 0 0 
L 0 -3.5 
" style="stroke: #000000; stroke-width: 0.8"/>
      </defs>
      <g>
       <use xlink:href="#mfc05646e4e" x="53.045" y="331.905469" style="stroke: #000000; stroke-width: 0.8"/>
      </g>
     </g>
     <g id="text_1">
      <!-- 0.0 -->
      <g transform="translate(41.247266 348.936406) scale(0.17 -0.17)">
       <defs>
        <path id="NotoSansCJKjp-Regular-30" d="M 1779 -83 
C 2669 -83 3238 723 3238 2362 
C 3238 3987 2669 4774 1779 4774 
C 883 4774 320 3987 320 2362 
C 320 723 883 -83 1779 -83 
z
M 1779 390 
C 1248 390 883 986 883 2362 
C 883 3731 1248 4314 1779 4314 
C 2310 4314 2675 3731 2675 2362 
C 2675 986 2310 390 1779 390 
z
" transform="scale(0.015625)"/>
        <path id="NotoSansCJKjp-Regular-2e" d="M 890 -83 
C 1120 -83 1312 96 1312 358 
C 1312 627 1120 806 890 806 
C 653 806 467 627 467 358 
C 467 96 653 -83 890 -83 
z
" transform="scale(0.015625)"/>
       </defs>
       <use xlink:href="#NotoSansCJKjp-Regular-30"/>
       <use xlink:href="#NotoSansCJKjp-Regular-2e" x="55.499985"/>
       <use xlink:href="#NotoSansCJKjp-Regular-30" x="83.299973"/>
      </g>
     </g>
    </g>
    <g id="xtick_2">
     <g id="line2d_3">
      <path d="M 152.747 331.905469 
L 152.747 13.965469 
" clip-path="url(#pa687a0fb68)" style="fill: none; stroke-dasharray: 2.96,1.28; stroke-dashoffset: 0; stroke: #b0b0b0; stroke-opacity: 0.2; stroke-width: 0.8"/>
     </g>
     <g id="line2d_4">
      <g>
       <use xlink:href="#mfc05646e4e" x="152.747" y="331.905469" style="stroke: #000000; stroke-width: 0.8"/>
      </g>
     </g>
     <g id="text_2">
      <!-- 0.2 -->
      <g transform="translate(140.949266 348.936406) scale(0.17 -0.17)">
       <defs>
        <path id="NotoSansCJKjp-Regular-32" d="M 282 0 
L 3232 0 
L 3232 506 
L 1933 506 
C 1696 506 1408 480 1165 461 
C 2266 1504 3008 2458 3008 3398 
C 3008 4230 2477 4774 1638 4774 
C 1043 4774 634 4506 256 4090 
L 595 3757 
C 858 4070 1184 4301 1568 4301 
C 2150 4301 2432 3910 2432 3373 
C 2432 2566 1754 1632 282 346 
L 282 0 
z
" transform="scale(0.015625)"/>
       </defs>
       <use xlink:href="#NotoSansCJKjp-Regular-30"/>
       <use xlink:href="#NotoSansCJKjp-Regular-2e" x="55.499985"/>
       <use xlink:href="#NotoSansCJKjp-Regular-32" x="83.299973"/>
      </g>
     </g>
    </g>
    <g id="xtick_3">
     <g id="line2d_5">
      <path d="M 252.449 331.905469 
L 252.449 13.965469 
" clip-path="url(#pa687a0fb68)" style="fill: none; stroke-dasharray: 2.96,1.28; stroke-dashoffset: 0; stroke: #b0b0b0; stroke-opacity: 0.2; stroke-width: 0.8"/>
     </g>
     <g id="line2d_6">
      <g>
       <use xlink:href="#mfc05646e4e" x="252.449" y="331.905469" style="stroke: #000000; stroke-width: 0.8"/>
      </g>
     </g>
     <g id="text_3">
      <!-- 0.4 -->
      <g transform="translate(240.651266 348.936406) scale(0.17 -0.17)">
       <defs>
        <path id="NotoSansCJKjp-Regular-34" d="M 2176 0 
L 2726 0 
L 2726 1293 
L 3354 1293 
L 3354 1760 
L 2726 1760 
L 2726 4691 
L 2080 4691 
L 128 1677 
L 128 1293 
L 2176 1293 
L 2176 0 
z
M 2176 1760 
L 736 1760 
L 1805 3360 
C 1939 3590 2067 3827 2182 4051 
L 2208 4051 
C 2195 3814 2176 3430 2176 3200 
L 2176 1760 
z
" transform="scale(0.015625)"/>
       </defs>
       <use xlink:href="#NotoSansCJKjp-Regular-30"/>
       <use xlink:href="#NotoSansCJKjp-Regular-2e" x="55.499985"/>
       <use xlink:href="#NotoSansCJKjp-Regular-34" x="83.299973"/>
      </g>
     </g>
    </g>
    <g id="xtick_4">
     <g id="line2d_7">
      <path d="M 352.151 331.905469 
L 352.151 13.965469 
" clip-path="url(#pa687a0fb68)" style="fill: none; stroke-dasharray: 2.96,1.28; stroke-dashoffset: 0; stroke: #b0b0b0; stroke-opacity: 0.2; stroke-width: 0.8"/>
     </g>
     <g id="line2d_8">
      <g>
       <use xlink:href="#mfc05646e4e" x="352.151" y="331.905469" style="stroke: #000000; stroke-width: 0.8"/>
      </g>
     </g>
     <g id="text_4">
      <!-- 0.6 -->
      <g transform="translate(340.353266 348.936406) scale(0.17 -0.17)">
       <defs>
        <path id="NotoSansCJKjp-Regular-36" d="M 1926 -83 
C 2656 -83 3277 531 3277 1440 
C 3277 2426 2765 2912 1971 2912 
C 1606 2912 1197 2701 909 2349 
C 934 3802 1466 4294 2118 4294 
C 2400 4294 2682 4154 2861 3936 
L 3194 4294 
C 2931 4576 2579 4774 2093 4774 
C 1184 4774 358 4077 358 2240 
C 358 691 1030 -83 1926 -83 
z
M 922 1882 
C 1229 2317 1587 2477 1875 2477 
C 2445 2477 2720 2074 2720 1440 
C 2720 800 2374 378 1926 378 
C 1338 378 986 909 922 1882 
z
" transform="scale(0.015625)"/>
       </defs>
       <use xlink:href="#NotoSansCJKjp-Regular-30"/>
       <use xlink:href="#NotoSansCJKjp-Regular-2e" x="55.499985"/>
       <use xlink:href="#NotoSansCJKjp-Regular-36" x="83.299973"/>
      </g>
     </g>
    </g>
    <g id="xtick_5">
     <g id="line2d_9">
      <path d="M 451.853 331.905469 
L 451.853 13.965469 
" clip-path="url(#pa687a0fb68)" style="fill: none; stroke-dasharray: 2.96,1.28; stroke-dashoffset: 0; stroke: #b0b0b0; stroke-opacity: 0.2; stroke-width: 0.8"/>
     </g>
     <g id="line2d_10">
      <g>
       <use xlink:href="#mfc05646e4e" x="451.853" y="331.905469" style="stroke: #000000; stroke-width: 0.8"/>
      </g>
     </g>
     <g id="text_5">
      <!-- 0.8 -->
      <g transform="translate(440.055266 348.936406) scale(0.17 -0.17)">
       <defs>
        <path id="NotoSansCJKjp-Regular-38" d="M 1792 -83 
C 2669 -83 3258 448 3258 1126 
C 3258 1773 2880 2125 2470 2362 
L 2470 2394 
C 2746 2611 3091 3034 3091 3526 
C 3091 4250 2605 4762 1805 4762 
C 1075 4762 518 4282 518 3571 
C 518 3078 813 2726 1152 2490 
L 1152 2464 
C 723 2234 294 1792 294 1165 
C 294 442 922 -83 1792 -83 
z
M 2112 2547 
C 1555 2765 1050 3014 1050 3571 
C 1050 4026 1363 4326 1798 4326 
C 2298 4326 2592 3962 2592 3494 
C 2592 3149 2426 2829 2112 2547 
z
M 1798 352 
C 1235 352 813 717 813 1216 
C 813 1664 1082 2035 1459 2278 
C 2125 2010 2701 1779 2701 1146 
C 2701 678 2342 352 1798 352 
z
" transform="scale(0.015625)"/>
       </defs>
       <use xlink:href="#NotoSansCJKjp-Regular-30"/>
       <use xlink:href="#NotoSansCJKjp-Regular-2e" x="55.499985"/>
       <use xlink:href="#NotoSansCJKjp-Regular-38" x="83.299973"/>
      </g>
     </g>
    </g>
    <g id="xtick_6">
     <g id="line2d_11">
      <path d="M 551.555 331.905469 
L 551.555 13.965469 
" clip-path="url(#pa687a0fb68)" style="fill: none; stroke-dasharray: 2.96,1.28; stroke-dashoffset: 0; stroke: #b0b0b0; stroke-opacity: 0.2; stroke-width: 0.8"/>
     </g>
     <g id="line2d_12">
      <g>
       <use xlink:href="#mfc05646e4e" x="551.555" y="331.905469" style="stroke: #000000; stroke-width: 0.8"/>
      </g>
     </g>
     <g id="text_6">
      <!-- 1.0 -->
      <g transform="translate(539.757266 348.936406) scale(0.17 -0.17)">
       <defs>
        <path id="NotoSansCJKjp-Regular-31" d="M 563 0 
L 3136 0 
L 3136 486 
L 2195 486 
L 2195 4691 
L 1747 4691 
C 1491 4544 1190 4435 774 4358 
L 774 3987 
L 1613 3987 
L 1613 486 
L 563 486 
L 563 0 
z
" transform="scale(0.015625)"/>
       </defs>
       <use xlink:href="#NotoSansCJKjp-Regular-31"/>
       <use xlink:href="#NotoSansCJKjp-Regular-2e" x="55.499985"/>
       <use xlink:href="#NotoSansCJKjp-Regular-30" x="83.299973"/>
      </g>
     </g>
    </g>
    <g id="text_7">
     <!-- 训练步数（×10^6） -->
     <g transform="translate(214.71 371.953281) scale(0.19 -0.19)">
      <defs>
       <path id="DroidSansFallback-8bad" d="M 1250 5175 
Q 1650 4675 1900 4125 
L 1425 3850 
Q 1200 4400 800 4900 
L 1250 5175 
z
M 325 3325 
L 1625 3325 
L 1625 575 
L 1950 1025 
L 2250 750 
Q 1975 225 1525 -250 
L 1150 75 
L 1150 2875 
L 325 2875 
L 325 3325 
z
M 5375 5200 
L 5875 5200 
L 5875 -575 
L 5375 -575 
L 5375 5200 
z
M 2950 5200 
L 3450 5200 
L 3450 1900 
Q 3450 375 2575 -600 
L 2175 -275 
Q 2950 600 2950 1900 
L 2950 5200 
z
M 4175 4875 
L 4650 4875 
L 4650 -100 
L 4175 -100 
L 4175 4875 
z
" transform="scale(0.015625)"/>
       <path id="DroidSansFallback-7ec3" d="M 2000 4150 
L 2450 3975 
Q 1825 2575 1075 1750 
L 2150 2075 
L 2275 1700 
Q 1475 1375 525 1200 
L 375 1600 
Q 900 2150 1375 2950 
L 525 2825 
L 425 3275 
Q 950 4000 1300 5175 
L 1775 5025 
Q 1450 3925 950 3300 
L 1600 3375 
L 2000 4150 
z
M 2175 950 
L 2275 500 
Q 1475 175 525 -50 
L 325 475 
L 2175 950 
z
M 4000 5175 
L 4475 5075 
L 4275 4350 
L 5975 4350 
L 5975 3875 
L 4100 3875 
L 3900 3350 
L 4875 3350 
L 4875 2050 
L 5900 2050 
L 5900 1625 
L 4875 1625 
L 4875 0 
Q 4875 -550 4375 -550 
L 3725 -500 
L 3600 -25 
L 4250 -75 
Q 4375 -75 4375 75 
L 4375 1625 
L 2775 1625 
L 2675 2050 
L 3150 2875 
L 2625 2875 
L 2625 3350 
L 3375 3350 
L 3575 3875 
L 2575 3875 
L 2575 4350 
L 3750 4350 
L 4000 5175 
z
M 4375 2050 
L 4375 2875 
L 3725 2875 
L 3275 2050 
L 4375 2050 
z
M 5500 1350 
Q 5875 725 6125 25 
L 5625 -200 
Q 5400 550 5075 1150 
L 5500 1350 
z
M 3100 1350 
L 3550 1075 
Q 3150 200 2725 -300 
L 2325 50 
Q 2800 650 3100 1350 
z
" transform="scale(0.015625)"/>
       <path id="DroidSansFallback-6b65" d="M 2950 5200 
L 3450 5200 
L 3450 4425 
L 5400 4425 
L 5400 3950 
L 3450 3950 
L 3450 3175 
L 6000 3175 
L 6000 2700 
L 400 2700 
L 400 3175 
L 1425 3175 
L 1425 4700 
L 1925 4700 
L 1925 3175 
L 2950 3175 
L 2950 5200 
z
M 2950 2375 
L 3450 2375 
L 3450 650 
Q 4375 1200 4975 2000 
L 5475 1800 
Q 4200 -25 825 -700 
L 600 -250 
Q 1975 0 2950 400 
L 2950 2375 
z
M 1875 2225 
L 2300 1975 
Q 1775 1050 1200 525 
L 800 900 
Q 1450 1525 1875 2225 
z
" transform="scale(0.015625)"/>
       <path id="DroidSansFallback-6570" d="M 4275 4125 
L 5950 4125 
L 5950 3650 
L 5675 3650 
Q 5525 1900 4975 1000 
Q 5425 400 6125 -100 
L 5750 -575 
Q 5175 -100 4675 550 
Q 4175 -125 3450 -600 
L 3100 -150 
Q 3850 300 4350 1025 
L 3700 2375 
L 3500 1950 
L 3100 2250 
Q 3725 3575 4000 5175 
L 4500 5025 
L 4275 4125 
z
M 5175 3650 
L 4150 3650 
L 3975 3075 
Q 4275 2175 4650 1525 
Q 4975 2225 5125 3225 
L 5125 3250 
L 5175 3650 
z
M 450 4100 
L 1750 4100 
L 1750 5150 
L 2200 5150 
L 2200 4100 
L 3400 4100 
L 3400 3675 
L 2200 3675 
L 2200 2525 
L 1750 2525 
L 1750 3300 
Q 1325 2700 750 2325 
L 425 2725 
Q 1050 3050 1525 3675 
L 450 3675 
L 450 4100 
z
M 1050 5050 
L 1375 4375 
L 975 4175 
L 675 4875 
L 1050 5050 
z
M 2900 5050 
L 3275 4875 
Q 3050 4450 2800 4225 
L 2475 4525 
Q 2725 4750 2900 5050 
z
M 2725 3450 
L 3175 2825 
L 2800 2600 
Q 2650 2950 2375 3250 
L 2725 3450 
z
M 425 2000 
L 1400 2000 
L 1575 2400 
L 2050 2350 
L 1900 2000 
L 3025 2000 
L 3025 1575 
Q 2725 925 2300 475 
L 3075 0 
L 2775 -450 
L 1925 125 
Q 1400 -325 525 -600 
L 375 -175 
Q 1025 25 1500 350 
L 625 800 
L 1150 1575 
L 425 1575 
L 425 2000 
z
M 1675 1575 
L 1300 1000 
L 1900 700 
Q 2275 1100 2500 1575 
L 1675 1575 
z
" transform="scale(0.015625)"/>
       <path id="DroidSansFallback-ff08" d="M 4100 4575 
L 4700 4575 
Q 3050 3575 3050 1750 
Q 3050 -25 4700 -1000 
L 4100 -1000 
Q 3375 -675 2912 87 
Q 2450 850 2450 1750 
Q 2450 2675 2912 3437 
Q 3375 4200 4100 4575 
z
" transform="scale(0.015625)"/>
       <path id="NotoSansCJKjp-Regular-d7" d="M 4954 346 
L 5261 653 
L 3514 2406 
L 5261 4160 
L 4954 4467 
L 3200 2714 
L 1453 4467 
L 1139 4154 
L 2893 2406 
L 1139 653 
L 1453 346 
L 3200 2099 
L 4954 346 
z
" transform="scale(0.015625)"/>
       <path id="NotoSansCJKjp-Regular-5e" d="M 435 2029 
L 941 2029 
L 1408 3290 
L 1760 4243 
L 1792 4243 
L 2144 3290 
L 2611 2029 
L 3123 2029 
L 2035 4794 
L 1517 4794 
L 435 2029 
z
" transform="scale(0.015625)"/>
       <path id="DroidSansFallback-ff09" d="M 2300 -1000 
L 1700 -1000 
Q 3350 -25 3350 1750 
Q 3350 3575 1700 4575 
L 2300 4575 
Q 3025 4200 3487 3437 
Q 3950 2675 3950 1750 
Q 3950 850 3487 87 
Q 3025 -675 2300 -1000 
z
" transform="scale(0.015625)"/>
      </defs>
      <use xlink:href="#DroidSansFallback-8bad"/>
      <use xlink:href="#DroidSansFallback-7ec3" x="100"/>
      <use xlink:href="#DroidSansFallback-6b65" x="200"/>
      <use xlink:href="#DroidSansFallback-6570" x="300"/>
      <use xlink:href="#DroidSansFallback-ff08" x="400"/>
      <use xlink:href="#NotoSansCJKjp-Regular-d7" x="500"/>
      <use xlink:href="#NotoSansCJKjp-Regular-31" x="599.999985"/>
      <use xlink:href="#NotoSansCJKjp-Regular-30" x="655.499969"/>
      <use xlink:href="#NotoSansCJKjp-Regular-5e" x="710.999954"/>
      <use xlink:href="#NotoSansCJKjp-Regular-36" x="766.499939"/>
      <use xlink:href="#DroidSansFallback-ff09" x="821.999924"/>
     </g>
    </g>
   </g>
   <g id="matplotlib.axis_2">
    <g id="ytick_1">
     <g id="line2d_13">
      <path d="M 53.045 331.905469 
L 551.555 331.905469 
" clip-path="url(#pa687a0fb68)" style="fill: none; stroke-dasharray: 2.96,1.28; stroke-dashoffset: 0; stroke: #b0b0b0; stroke-opacity: 0.2; stroke-width: 0.8"/>
     </g>
     <g id="line2d_14">
      <defs>
       <path id="m6cd3537c16" d="M 0 0 
L 3.5 0 
" style="stroke: #000000; stroke-width: 0.8"/>
      </defs>
      <g>
       <use xlink:href="#m6cd3537c16" x="53.045" y="331.905469" style="stroke: #000000; stroke-width: 0.8"/>
      </g>
     </g>
     <g id="text_8">
      <!-- 6 -->
      <g transform="translate(40.11 338.670937) scale(0.17 -0.17)">
       <use xlink:href="#NotoSansCJKjp-Regular-36"/>
      </g>
     </g>
    </g>
    <g id="ytick_2">
     <g id="line2d_15">
      <path d="M 53.045 286.485469 
L 551.555 286.485469 
" clip-path="url(#pa687a0fb68)" style="fill: none; stroke-dasharray: 2.96,1.28; stroke-dashoffset: 0; stroke: #b0b0b0; stroke-opacity: 0.2; stroke-width: 0.8"/>
     </g>
     <g id="line2d_16">
      <g>
       <use xlink:href="#m6cd3537c16" x="53.045" y="286.485469" style="stroke: #000000; stroke-width: 0.8"/>
      </g>
     </g>
     <g id="text_9">
      <!-- 7 -->
      <g transform="translate(40.11 293.250937) scale(0.17 -0.17)">
       <defs>
        <path id="NotoSansCJKjp-Regular-37" d="M 1267 0 
L 1875 0 
C 1952 1837 2150 2931 3251 4339 
L 3251 4691 
L 314 4691 
L 314 4192 
L 2592 4192 
C 1670 2912 1350 1779 1267 0 
z
" transform="scale(0.015625)"/>
       </defs>
       <use xlink:href="#NotoSansCJKjp-Regular-37"/>
      </g>
     </g>
    </g>
    <g id="ytick_3">
     <g id="line2d_17">
      <path d="M 53.045 241.065469 
L 551.555 241.065469 
" clip-path="url(#pa687a0fb68)" style="fill: none; stroke-dasharray: 2.96,1.28; stroke-dashoffset: 0; stroke: #b0b0b0; stroke-opacity: 0.2; stroke-width: 0.8"/>
     </g>
     <g id="line2d_18">
      <g>
       <use xlink:href="#m6cd3537c16" x="53.045" y="241.065469" style="stroke: #000000; stroke-width: 0.8"/>
      </g>
     </g>
     <g id="text_10">
      <!-- 8 -->
      <g transform="translate(40.11 247.830937) scale(0.17 -0.17)">
       <use xlink:href="#NotoSansCJKjp-Regular-38"/>
      </g>
     </g>
    </g>
    <g id="ytick_4">
     <g id="line2d_19">
      <path d="M 53.045 195.645469 
L 551.555 195.645469 
" clip-path="url(#pa687a0fb68)" style="fill: none; stroke-dasharray: 2.96,1.28; stroke-dashoffset: 0; stroke: #b0b0b0; stroke-opacity: 0.2; stroke-width: 0.8"/>
     </g>
     <g id="line2d_20">
      <g>
       <use xlink:href="#m6cd3537c16" x="53.045" y="195.645469" style="stroke: #000000; stroke-width: 0.8"/>
      </g>
     </g>
     <g id="text_11">
      <!-- 9 -->
      <g transform="translate(40.11 202.410937) scale(0.17 -0.17)">
       <defs>
        <path id="NotoSansCJKjp-Regular-39" d="M 1504 -83 
C 2381 -83 3206 646 3206 2547 
C 3206 4038 2528 4774 1626 4774 
C 896 4774 282 4166 282 3251 
C 282 2285 794 1779 1574 1779 
C 1965 1779 2368 2003 2656 2349 
C 2611 896 2086 403 1485 403 
C 1178 403 896 538 691 762 
L 371 397 
C 634 122 992 -83 1504 -83 
z
M 2650 2842 
C 2336 2394 1984 2214 1670 2214 
C 1114 2214 832 2624 832 3251 
C 832 3898 1178 4320 1632 4320 
C 2227 4320 2586 3808 2650 2842 
z
" transform="scale(0.015625)"/>
       </defs>
       <use xlink:href="#NotoSansCJKjp-Regular-39"/>
      </g>
     </g>
    </g>
    <g id="ytick_5">
     <g id="line2d_21">
      <path d="M 53.045 150.225469 
L 551.555 150.225469 
" clip-path="url(#pa687a0fb68)" style="fill: none; stroke-dasharray: 2.96,1.28; stroke-dashoffset: 0; stroke: #b0b0b0; stroke-opacity: 0.2; stroke-width: 0.8"/>
     </g>
     <g id="line2d_22">
      <g>
       <use xlink:href="#m6cd3537c16" x="53.045" y="150.225469" style="stroke: #000000; stroke-width: 0.8"/>
      </g>
     </g>
     <g id="text_12">
      <!-- 10 -->
      <g transform="translate(30.675 156.990937) scale(0.17 -0.17)">
       <use xlink:href="#NotoSansCJKjp-Regular-31"/>
       <use xlink:href="#NotoSansCJKjp-Regular-30" x="55.499985"/>
      </g>
     </g>
    </g>
    <g id="ytick_6">
     <g id="line2d_23">
      <path d="M 53.045 104.805469 
L 551.555 104.805469 
" clip-path="url(#pa687a0fb68)" style="fill: none; stroke-dasharray: 2.96,1.28; stroke-dashoffset: 0; stroke: #b0b0b0; stroke-opacity: 0.2; stroke-width: 0.8"/>
     </g>
     <g id="line2d_24">
      <g>
       <use xlink:href="#m6cd3537c16" x="53.045" y="104.805469" style="stroke: #000000; stroke-width: 0.8"/>
      </g>
     </g>
     <g id="text_13">
      <!-- 11 -->
      <g transform="translate(30.675 111.570937) scale(0.17 -0.17)">
       <use xlink:href="#NotoSansCJKjp-Regular-31"/>
       <use xlink:href="#NotoSansCJKjp-Regular-31" x="55.499985"/>
      </g>
     </g>
    </g>
    <g id="ytick_7">
     <g id="line2d_25">
      <path d="M 53.045 59.385469 
L 551.555 59.385469 
" clip-path="url(#pa687a0fb68)" style="fill: none; stroke-dasharray: 2.96,1.28; stroke-dashoffset: 0; stroke: #b0b0b0; stroke-opacity: 0.2; stroke-width: 0.8"/>
     </g>
     <g id="line2d_26">
      <g>
       <use xlink:href="#m6cd3537c16" x="53.045" y="59.385469" style="stroke: #000000; stroke-width: 0.8"/>
      </g>
     </g>
     <g id="text_14">
      <!-- 12 -->
      <g transform="translate(30.675 66.150937) scale(0.17 -0.17)">
       <use xlink:href="#NotoSansCJKjp-Regular-31"/>
       <use xlink:href="#NotoSansCJKjp-Regular-32" x="55.499985"/>
      </g>
     </g>
    </g>
    <g id="ytick_8">
     <g id="line2d_27">
      <path d="M 53.045 13.965469 
L 551.555 13.965469 
" clip-path="url(#pa687a0fb68)" style="fill: none; stroke-dasharray: 2.96,1.28; stroke-dashoffset: 0; stroke: #b0b0b0; stroke-opacity: 0.2; stroke-width: 0.8"/>
     </g>
     <g id="line2d_28">
      <g>
       <use xlink:href="#m6cd3537c16" x="53.045" y="13.965469" style="stroke: #000000; stroke-width: 0.8"/>
      </g>
     </g>
     <g id="text_15">
      <!-- 13 -->
      <g transform="translate(30.675 20.730937) scale(0.17 -0.17)">
       <defs>
        <path id="NotoSansCJKjp-Regular-33" d="M 1683 -83 
C 2522 -83 3194 416 3194 1254 
C 3194 1901 2752 2310 2202 2445 
L 2202 2477 
C 2701 2650 3034 3034 3034 3603 
C 3034 4346 2458 4774 1664 4774 
C 1126 4774 710 4538 358 4218 
L 672 3846 
C 941 4115 1267 4301 1645 4301 
C 2138 4301 2438 4006 2438 3558 
C 2438 3053 2112 2662 1139 2662 
L 1139 2214 
C 2227 2214 2598 1843 2598 1274 
C 2598 736 2208 403 1645 403 
C 1114 403 762 659 486 941 
L 186 563 
C 493 224 954 -83 1683 -83 
z
" transform="scale(0.015625)"/>
       </defs>
       <use xlink:href="#NotoSansCJKjp-Regular-31"/>
       <use xlink:href="#NotoSansCJKjp-Regular-33" x="55.499985"/>
      </g>
     </g>
    </g>
    <g id="text_16">
     <!-- 评估合法信噪比（dB） -->
     <g transform="translate(22.322813 270.567266) rotate(-90) scale(0.19 -0.19)">
      <defs>
       <path id="DroidSansFallback-8bc4" d="M 1275 5175 
Q 1700 4675 1975 4125 
L 1500 3850 
Q 1250 4400 825 4900 
L 1275 5175 
z
M 325 3325 
L 1675 3325 
L 1675 425 
L 2200 1000 
L 2525 700 
Q 2175 225 1575 -250 
L 1200 75 
L 1200 2875 
L 325 2875 
L 325 3325 
z
M 2375 4950 
L 5875 4950 
L 5875 4475 
L 4300 4475 
L 4300 2050 
L 6075 2050 
L 6075 1575 
L 4300 1575 
L 4300 -575 
L 3825 -575 
L 3825 1575 
L 2050 1575 
L 2050 2050 
L 3825 2050 
L 3825 4475 
L 2375 4475 
L 2375 4950 
z
M 5375 4125 
L 5850 3950 
Q 5550 2950 5150 2275 
L 4725 2525 
Q 5150 3325 5375 4125 
z
M 2900 4125 
Q 3250 3275 3375 2425 
L 2900 2300 
Q 2775 3200 2400 4000 
L 2900 4125 
z
" transform="scale(0.015625)"/>
       <path id="DroidSansFallback-4f30" d="M 1575 5175 
L 2075 5025 
L 1625 3875 
L 1625 -575 
L 1125 -575 
L 1125 2925 
L 500 2050 
L 250 2550 
Q 1175 3800 1575 5175 
z
M 2025 3925 
L 3775 3925 
L 3775 5175 
L 4275 5175 
L 4275 3925 
L 6050 3925 
L 6050 3475 
L 4275 3475 
L 4275 2225 
L 5675 2225 
L 5675 -575 
L 5175 -575 
L 5175 -150 
L 2975 -150 
L 2975 -575 
L 2475 -575 
L 2475 2225 
L 3775 2225 
L 3775 3475 
L 2025 3475 
L 2025 3925 
z
M 2975 325 
L 5175 325 
L 5175 1750 
L 2975 1750 
L 2975 325 
z
" transform="scale(0.015625)"/>
       <path id="DroidSansFallback-5408" d="M 3150 5250 
L 3675 5100 
L 3500 4900 
Q 4750 3900 6125 3350 
L 5825 2850 
Q 4500 3425 3200 4575 
Q 2025 3475 525 2800 
L 250 3250 
Q 2275 4200 3150 5250 
z
M 1300 3100 
L 5075 3100 
L 5075 2600 
L 1300 2600 
L 1300 3100 
z
M 5300 1925 
L 5300 -575 
L 4800 -575 
L 4800 -175 
L 1550 -175 
L 1550 -575 
L 1050 -575 
L 1050 1925 
L 5300 1925 
z
M 1550 300 
L 4800 300 
L 4800 1450 
L 1550 1450 
L 1550 300 
z
" transform="scale(0.015625)"/>
       <path id="DroidSansFallback-6cd5" d="M 900 5125 
Q 1450 4825 1900 4400 
L 1575 3975 
Q 1075 4450 550 4775 
L 900 5125 
z
M 650 3575 
L 1575 2950 
L 1225 2525 
Q 800 2950 300 3225 
L 650 3575 
z
M 1225 2000 
L 1650 1700 
Q 1350 525 775 -575 
L 275 -225 
Q 875 825 1225 2000 
z
M 2300 4100 
L 3750 4100 
L 3750 5175 
L 4275 5175 
L 4275 4100 
L 5725 4100 
L 5725 3625 
L 4275 3625 
L 4275 2550 
L 6050 2550 
L 6050 2050 
L 3950 2050 
Q 3450 725 2925 175 
Q 3900 275 4925 525 
L 4475 1425 
L 4925 1625 
Q 5475 725 5850 -350 
L 5325 -575 
L 5125 50 
Q 3825 -250 2375 -350 
L 2225 125 
Q 2900 800 3375 2050 
L 2025 2050 
L 2025 2550 
L 3750 2550 
L 3750 3625 
L 2300 3625 
L 2300 4100 
z
" transform="scale(0.015625)"/>
       <path id="DroidSansFallback-4fe1" d="M 1575 5175 
L 2075 5025 
L 1625 3875 
L 1625 -575 
L 1125 -575 
L 1125 2925 
L 500 2050 
L 250 2550 
Q 1175 3800 1575 5175 
z
M 2100 4450 
L 3875 4450 
L 3600 5000 
L 4125 5175 
L 4450 4450 
L 6075 4450 
L 6075 3975 
L 2100 3975 
L 2100 4450 
z
M 2425 3475 
L 5725 3475 
L 5725 3025 
L 2425 3025 
L 2425 3475 
z
M 2425 2525 
L 5725 2525 
L 5725 2075 
L 2425 2075 
L 2425 2525 
z
M 5675 1575 
L 5675 -525 
L 5175 -525 
L 5175 -225 
L 2975 -225 
L 2975 -550 
L 2475 -550 
L 2475 1575 
L 5675 1575 
z
M 2975 225 
L 5175 225 
L 5175 1125 
L 2975 1125 
L 2975 225 
z
" transform="scale(0.015625)"/>
       <path id="DroidSansFallback-566a" d="M 2700 5050 
L 5375 5050 
L 5375 3750 
L 2700 3750 
L 2700 5050 
z
M 3200 4175 
L 4875 4175 
L 4875 4625 
L 3200 4625 
L 3200 4175 
z
M 2225 3400 
L 3850 3400 
L 3850 2025 
L 2225 2025 
L 2225 3400 
z
M 2700 2450 
L 3375 2450 
L 3375 3000 
L 2700 3000 
L 2700 2450 
z
M 4250 3400 
L 5875 3400 
L 5875 2025 
L 4250 2025 
L 4250 3400 
z
M 4725 2450 
L 5400 2450 
L 5400 3000 
L 4725 3000 
L 4725 2450 
z
M 2175 1550 
L 3850 1550 
L 3850 1850 
L 4325 1850 
L 4325 1550 
L 6075 1550 
L 6075 1125 
L 4600 1125 
Q 5225 400 6175 75 
L 5925 -400 
Q 5000 25 4325 850 
L 4325 -575 
L 3850 -575 
L 3850 825 
Q 3250 125 2250 -350 
L 1925 50 
Q 2900 450 3575 1125 
L 2175 1125 
L 2175 1550 
z
M 1925 4600 
L 1925 675 
L 1475 675 
L 1475 1100 
L 975 1100 
L 975 450 
L 525 450 
L 525 4600 
L 1925 4600 
z
M 975 1525 
L 1475 1525 
L 1475 4175 
L 975 4175 
L 975 1525 
z
" transform="scale(0.015625)"/>
       <path id="DroidSansFallback-6bd4" d="M 825 5100 
L 1350 5100 
L 1350 3325 
L 2900 3325 
L 2900 2825 
L 1350 2825 
L 1350 75 
L 2825 675 
L 2925 150 
L 1075 -575 
L 825 -325 
L 825 5100 
z
M 3400 5100 
L 3925 5100 
L 3925 3225 
Q 4800 3575 5550 4075 
L 5875 3625 
Q 4975 3075 3925 2675 
L 3925 225 
Q 3925 125 4062 75 
Q 4200 25 4950 25 
Q 5325 25 5437 175 
Q 5550 325 5600 925 
L 6075 725 
Q 5975 -100 5775 -300 
Q 5575 -500 4950 -500 
Q 3925 -500 3662 -350 
Q 3400 -200 3400 125 
L 3400 5100 
z
" transform="scale(0.015625)"/>
       <path id="NotoSansCJKjp-Regular-64" d="M 1773 -83 
C 2189 -83 2560 141 2829 410 
L 2848 410 
L 2899 0 
L 3379 0 
L 3379 5094 
L 2790 5094 
L 2790 3757 
L 2822 3162 
C 2515 3411 2253 3565 1843 3565 
C 1050 3565 339 2861 339 1734 
C 339 576 902 -83 1773 -83 
z
M 1901 410 
C 1293 410 941 902 941 1741 
C 941 2534 1389 3072 1946 3072 
C 2234 3072 2502 2970 2790 2707 
L 2790 883 
C 2502 563 2221 410 1901 410 
z
" transform="scale(0.015625)"/>
       <path id="NotoSansCJKjp-Regular-42" d="M 646 0 
L 2138 0 
C 3187 0 3917 454 3917 1376 
C 3917 2016 3520 2387 2963 2496 
L 2963 2528 
C 3405 2669 3648 3078 3648 3546 
C 3648 4371 2982 4691 2035 4691 
L 646 4691 
L 646 0 
z
M 1235 2701 
L 1235 4224 
L 1958 4224 
C 2694 4224 3066 4019 3066 3469 
C 3066 2989 2739 2701 1933 2701 
L 1235 2701 
z
M 1235 474 
L 1235 2240 
L 2054 2240 
C 2880 2240 3334 1978 3334 1395 
C 3334 762 2861 474 2054 474 
L 1235 474 
z
" transform="scale(0.015625)"/>
      </defs>
      <use xlink:href="#DroidSansFallback-8bc4"/>
      <use xlink:href="#DroidSansFallback-4f30" x="100"/>
      <use xlink:href="#DroidSansFallback-5408" x="200"/>
      <use xlink:href="#DroidSansFallback-6cd5" x="300"/>
      <use xlink:href="#DroidSansFallback-4fe1" x="400"/>
      <use xlink:href="#DroidSansFallback-566a" x="500"/>
      <use xlink:href="#DroidSansFallback-6bd4" x="600"/>
      <use xlink:href="#DroidSansFallback-ff08" x="700"/>
      <use xlink:href="#NotoSansCJKjp-Regular-64" x="800"/>
      <use xlink:href="#NotoSansCJKjp-Regular-42" x="861.999985"/>
      <use xlink:href="#DroidSansFallback-ff09" x="927.699982"/>
     </g>
    </g>
   </g>
   <g id="line2d_29">
    <path d="M 58.0301 271.986936 
L 63.0152 240.238865 
L 68.0003 228.86075 
L 72.9854 219.60652 
L 77.9705 205.435525 
L 82.9556 193.296788 
L 87.9407 184.852593 
L 92.9258 176.573949 
L 97.9109 170.442611 
L 102.896 156.590872 
L 107.8811 152.572504 
L 112.8662 146.902956 
L 117.8513 138.61841 
L 122.8364 135.087636 
L 127.8215 127.540099 
L 132.8066 121.472646 
L 137.7917 121.268855 
L 142.7768 122.391541 
L 147.7619 120.048063 
L 152.747 112.398243 
L 157.7321 105.171417 
L 162.7172 100.946 
L 167.7023 102.874286 
L 172.6874 100.014193 
L 177.6725 98.305388 
L 182.6576 103.090982 
L 187.6427 99.172401 
L 192.6278 102.387873 
L 197.6129 103.467439 
L 202.598 102.2456 
L 207.5831 101.218736 
L 212.5682 100.985658 
L 217.5533 104.288785 
L 222.5384 100.707737 
L 227.5235 95.961598 
L 232.5086 93.693891 
L 237.4937 94.767213 
L 242.4788 92.006457 
L 247.4639 89.641034 
L 252.449 89.699582 
L 257.4341 86.108331 
L 262.4192 82.453759 
L 267.4043 78.358606 
L 272.3894 74.62852 
L 277.3745 74.366527 
L 282.3596 71.594647 
L 287.3447 76.302682 
L 292.3298 79.607204 
L 297.3149 81.620114 
L 302.3 85.143928 
L 307.2851 87.87909 
L 312.2702 85.055613 
L 317.2553 88.218838 
L 322.2404 89.314821 
L 327.2255 89.463511 
L 332.2106 87.400556 
L 337.1957 86.227273 
L 342.1808 86.546768 
L 347.1659 86.815595 
L 352.151 88.36802 
L 357.1361 86.425578 
L 362.1212 86.100438 
L 367.1063 83.198555 
L 372.0914 85.44772 
L 377.0765 84.03547 
L 382.0616 85.498286 
L 387.0467 82.890756 
L 392.0318 81.458913 
L 397.0169 85.644442 
L 402.002 89.663663 
L 406.9871 90.058104 
L 411.9722 84.22642 
L 416.9573 84.739943 
L 421.9424 89.786836 
L 426.9275 87.094978 
L 431.9126 86.915409 
L 436.8977 86.401935 
L 441.8828 82.549358 
L 446.8679 81.954209 
L 451.853 82.502897 
L 456.8381 81.140226 
L 461.8232 81.928728 
L 466.8083 86.921078 
L 471.7934 86.112332 
L 476.7785 83.641411 
L 481.7636 79.802879 
L 486.7487 79.384657 
L 491.7338 77.680699 
L 496.7189 73.876389 
L 501.704 71.972163 
L 506.6891 69.840412 
L 511.6742 71.556145 
L 516.6593 64.507727 
L 521.6444 64.157557 
L 526.6295 60.012302 
L 531.6146 57.851084 
L 536.5997 61.397094 
L 541.5848 63.370003 
L 546.5699 62.840355 
L 551.555 63.350885 
" clip-path="url(#pa687a0fb68)" style="fill: none; stroke: #e45756; stroke-width: 2.8; stroke-linecap: square"/>
   </g>
   <g id="line2d_30">
    <path d="M 62.679098 384.505469 
L 63.0152 383.106193 
L 68.0003 364.967294 
L 72.9854 344.846 
L 77.9705 328.354384 
L 82.9556 316.083308 
L 87.9407 303.256834 
L 92.9258 291.121588 
L 97.9109 279.423411 
L 102.896 268.995471 
L 107.8811 262.044552 
L 112.8662 248.92965 
L 117.8513 246.675167 
L 122.8364 240.5038 
L 127.8215 232.095606 
L 132.8066 226.665953 
L 137.7917 220.177886 
L 142.7768 214.452299 
L 147.7619 211.38082 
L 152.747 211.257875 
L 157.7321 207.436616 
L 162.7172 207.859988 
L 167.7023 201.078628 
L 172.6874 198.956427 
L 177.6725 199.010202 
L 182.6576 196.412853 
L 187.6427 194.874816 
L 192.6278 193.799551 
L 197.6129 186.682301 
L 202.598 181.734776 
L 207.5831 178.021796 
L 212.5682 180.620054 
L 217.5533 177.004375 
L 222.5384 176.192334 
L 227.5235 175.473436 
L 232.5086 173.757042 
L 237.4937 177.036229 
L 242.4788 177.568201 
L 247.4639 178.633209 
L 252.449 178.180303 
L 257.4341 178.396356 
L 262.4192 180.212361 
L 267.4043 174.755036 
L 272.3894 178.137605 
L 277.3745 176.427843 
L 282.3596 174.840035 
L 287.3447 170.647768 
L 292.3298 169.244994 
L 297.3149 170.5797 
L 302.3 169.953858 
L 307.2851 170.625556 
L 312.2702 169.410679 
L 317.2553 169.070874 
L 322.2404 170.685365 
L 327.2255 171.317854 
L 332.2106 170.835397 
L 337.1957 171.880259 
L 342.1808 171.109956 
L 347.1659 174.072607 
L 352.151 172.419381 
L 357.1361 170.08225 
L 362.1212 169.599832 
L 367.1063 164.726504 
L 372.0914 164.656155 
L 377.0765 169.329214 
L 382.0616 169.657139 
L 387.0467 167.2464 
L 392.0318 169.543858 
L 397.0169 168.830255 
L 402.002 169.16925 
L 406.9871 164.816299 
L 411.9722 163.349349 
L 416.9573 159.752157 
L 421.9424 158.1379 
L 426.9275 158.622029 
L 431.9126 157.063054 
L 436.8977 161.661431 
L 441.8828 162.261835 
L 446.8679 162.725766 
L 451.853 165.433881 
L 456.8381 167.876707 
L 461.8232 167.075895 
L 466.8083 165.793361 
L 471.7934 161.765039 
L 476.7785 160.205692 
L 481.7636 153.15715 
L 486.7487 155.336128 
L 491.7338 158.024127 
L 496.7189 159.544753 
L 501.704 158.406736 
L 506.6891 159.692306 
L 511.6742 163.708449 
L 516.6593 161.812246 
L 521.6444 157.991059 
L 526.6295 162.734037 
L 531.6146 158.289888 
L 536.5997 153.71742 
L 541.5848 150.596373 
L 546.5699 152.066835 
L 551.555 152.675597 
" clip-path="url(#pa687a0fb68)" style="fill: none; stroke: #4c78a8; stroke-width: 2.8; stroke-linecap: square"/>
   </g>
   <g id="line2d_31">
    <path d="M 58.0301 262.732129 
L 63.0152 259.343361 
L 68.0003 254.013594 
L 72.9854 248.196844 
L 77.9705 246.467463 
L 82.9556 246.68955 
L 87.9407 246.427336 
L 92.9258 243.149181 
L 97.9109 242.523235 
L 102.896 237.046983 
L 107.8811 240.279525 
L 112.8662 237.46013 
L 117.8513 236.660712 
L 122.8364 235.573327 
L 127.8215 235.524596 
L 132.8066 232.813247 
L 137.7917 231.349825 
L 142.7768 229.358003 
L 147.7619 226.426229 
L 152.747 223.97149 
L 157.7321 224.175442 
L 162.7172 221.557181 
L 167.7023 222.090411 
L 172.6874 220.993425 
L 177.6725 218.787921 
L 182.6576 213.82047 
L 187.6427 213.624348 
L 192.6278 213.948178 
L 197.6129 211.748115 
L 202.598 208.738468 
L 207.5831 208.699054 
L 212.5682 209.599918 
L 217.5533 205.361369 
L 222.5384 199.633649 
L 227.5235 200.884426 
L 232.5086 199.600536 
L 237.4937 196.195562 
L 242.4788 196.976542 
L 247.4639 193.912581 
L 252.449 197.066914 
L 257.4341 195.589292 
L 262.4192 191.889189 
L 267.4043 192.916325 
L 272.3894 197.454748 
L 277.3745 200.633297 
L 282.3596 200.769014 
L 287.3447 203.01076 
L 292.3298 199.104896 
L 297.3149 198.286328 
L 302.3 196.427903 
L 307.2851 194.988729 
L 312.2702 198.512424 
L 317.2553 195.484243 
L 322.2404 198.735098 
L 327.2255 201.687416 
L 332.2106 202.170023 
L 337.1957 199.876214 
L 342.1808 200.867654 
L 347.1659 201.073245 
L 352.151 200.247665 
L 357.1361 201.939304 
L 362.1212 196.983558 
L 367.1063 196.765928 
L 372.0914 200.354859 
L 377.0765 201.530019 
L 382.0616 201.867714 
L 387.0467 202.888601 
L 392.0318 204.542901 
L 397.0169 203.5613 
L 402.002 202.107726 
L 406.9871 199.559221 
L 411.9722 196.919277 
L 416.9573 194.317288 
L 421.9424 191.528843 
L 426.9275 191.610598 
L 431.9126 190.206287 
L 436.8977 186.683035 
L 441.8828 187.368868 
L 446.8679 185.503719 
L 451.853 190.959486 
L 456.8381 191.743565 
L 461.8232 188.169235 
L 466.8083 189.510555 
L 471.7934 187.517009 
L 476.7785 191.685764 
L 481.7636 191.879696 
L 486.7487 190.00103 
L 491.7338 192.700728 
L 496.7189 191.488308 
L 501.704 191.008051 
L 506.6891 192.635313 
L 511.6742 191.469613 
L 516.6593 190.088174 
L 521.6444 193.559156 
L 526.6295 193.645155 
L 531.6146 192.09041 
L 536.5997 194.034307 
L 541.5848 193.319067 
L 546.5699 191.85599 
L 551.555 191.463104 
" clip-path="url(#pa687a0fb68)" style="fill: none; stroke: #54a24b; stroke-width: 2.8; stroke-linecap: square"/>
   </g>
   <g id="patch_3">
    <path d="M 53.045 331.905469 
L 53.045 13.965469 
" style="fill: none; stroke: #000000; stroke-width: 1.2; stroke-linejoin: miter; stroke-linecap: square"/>
   </g>
   <g id="patch_4">
    <path d="M 551.555 331.905469 
L 551.555 13.965469 
" style="fill: none; stroke: #000000; stroke-width: 1.2; stroke-linejoin: miter; stroke-linecap: square"/>
   </g>
   <g id="patch_5">
    <path d="M 53.045 331.905469 
L 551.555 331.905469 
" style="fill: none; stroke: #000000; stroke-width: 1.2; stroke-linejoin: miter; stroke-linecap: square"/>
   </g>
   <g id="patch_6">
    <path d="M 53.045 13.965469 
L 551.555 13.965469 
" style="fill: none; stroke: #000000; stroke-width: 1.2; stroke-linejoin: miter; stroke-linecap: square"/>
   </g>
   <g id="legend_1">
    <g id="patch_7">
     <path d="M 62.845 89.215469 
L 190.385 89.215469 
Q 193.185 89.215469 193.185 86.415469 
L 193.185 23.765469 
Q 193.185 20.965469 190.385 20.965469 
L 62.845 20.965469 
Q 60.045 20.965469 60.045 23.765469 
L 60.045 86.415469 
Q 60.045 89.215469 62.845 89.215469 
z
" style="fill: #ffffff; opacity: 0.9; stroke: #bfbfbf; stroke-linejoin: miter"/>
    </g>
    <g id="line2d_32">
     <path d="M 65.645 32.808594 
L 85.245 32.808594 
L 104.845 32.808594 
" style="fill: none; stroke: #e45756; stroke-width: 2.8; stroke-linecap: square"/>
    </g>
    <g id="text_17">
     <!-- 惩罚系数=2 -->
     <g transform="translate(116.045 37.708594) scale(0.14 -0.14)">
      <defs>
       <path id="DroidSansFallback-60e9" d="M 3275 1700 
Q 3650 1250 3900 700 
L 3425 500 
Q 3175 1050 2825 1475 
L 3275 1700 
z
M 5350 1525 
Q 5825 850 6125 50 
L 5600 -175 
Q 5325 650 4875 1300 
L 5350 1525 
z
M 1800 1500 
L 2300 1500 
L 2300 300 
Q 2300 150 2375 87 
Q 2450 25 2875 25 
L 3825 50 
Q 4200 50 4287 187 
Q 4375 325 4425 800 
L 4925 575 
Q 4775 -225 4525 -325 
Q 4175 -450 2650 -450 
Q 1850 -450 1800 25 
L 1800 1500 
z
M 1025 1425 
L 1450 1150 
Q 1050 200 625 -350 
L 225 0 
Q 725 650 1025 1425 
z
M 1850 5225 
L 2275 5000 
Q 1675 4450 750 3975 
L 400 4325 
Q 1275 4750 1850 5225 
z
M 2525 4850 
L 5850 4850 
L 5850 4400 
L 4425 4400 
L 4425 3725 
L 5650 3725 
L 5650 3250 
L 4425 3250 
L 4425 2325 
L 5975 2325 
L 5975 1875 
L 2150 1875 
L 2150 2325 
L 2675 2325 
L 2675 3875 
L 3150 3875 
L 3150 2325 
L 3975 2325 
L 3975 4400 
L 2525 4400 
L 2525 4850 
z
M 1900 4400 
L 2350 4150 
Q 2100 3775 1675 3375 
L 1675 1550 
L 1200 1550 
L 1200 3000 
L 700 2650 
L 375 3075 
Q 1400 3700 1900 4400 
z
" transform="scale(0.015625)"/>
       <path id="DroidSansFallback-7f5a" d="M 850 5000 
L 5525 5000 
L 5525 3300 
L 850 3300 
L 850 5000 
z
M 1350 3725 
L 2275 3725 
L 2275 4575 
L 1350 4575 
L 1350 3725 
z
M 2725 4575 
L 2725 3725 
L 3650 3725 
L 3650 4575 
L 2725 4575 
z
M 4100 4575 
L 4100 3725 
L 5025 3725 
L 5025 4575 
L 4100 4575 
z
M 1600 3125 
L 2475 2575 
L 2125 2175 
L 1300 2750 
L 1600 3125 
z
M 5025 2950 
L 5500 2950 
L 5500 125 
Q 5500 -250 5350 -400 
Q 5200 -550 4725 -550 
L 3750 -475 
L 3625 50 
L 4650 -50 
Q 5025 -50 5025 225 
L 5025 2950 
z
M 3550 2500 
L 4050 2500 
L 4050 450 
L 3550 450 
L 3550 2500 
z
M 650 1925 
L 2025 1925 
L 2025 125 
L 2475 600 
L 2800 300 
Q 2475 -150 1925 -600 
L 1575 -275 
L 1575 1475 
L 650 1475 
L 650 1925 
z
" transform="scale(0.015625)"/>
       <path id="DroidSansFallback-7cfb" d="M 4225 4175 
L 4675 4000 
Q 3300 2650 1800 1900 
L 4650 2200 
L 4125 2750 
L 4575 3025 
Q 5350 2300 5825 1450 
L 5350 1175 
L 4925 1850 
L 3525 1650 
L 3525 0 
Q 3500 -575 2925 -575 
L 2275 -500 
L 2175 0 
L 2850 -75 
Q 2975 -75 2975 225 
L 2975 1600 
L 1000 1425 
L 875 1825 
Q 1800 2275 2650 2875 
L 1075 2675 
L 975 3125 
Q 1825 3650 2400 4450 
L 950 4400 
L 675 4850 
Q 3850 4950 5150 5125 
L 5525 4700 
L 3050 4475 
Q 2500 3675 1750 3150 
L 3275 3350 
L 4225 4175 
z
M 1900 1250 
L 2225 850 
Q 1475 75 575 -400 
L 325 75 
Q 1125 450 1900 1250 
z
M 4475 1250 
Q 5250 600 5725 -125 
L 5250 -400 
Q 4800 300 4025 950 
L 4475 1250 
z
" transform="scale(0.015625)"/>
       <path id="NotoSansCJKjp-Regular-3d" d="M 243 2912 
L 3315 2912 
L 3315 3347 
L 243 3347 
L 243 2912 
z
M 243 1376 
L 3315 1376 
L 3315 1811 
L 243 1811 
L 243 1376 
z
" transform="scale(0.015625)"/>
      </defs>
      <use xlink:href="#DroidSansFallback-60e9"/>
      <use xlink:href="#DroidSansFallback-7f5a" x="100"/>
      <use xlink:href="#DroidSansFallback-7cfb" x="200"/>
      <use xlink:href="#DroidSansFallback-6570" x="300"/>
      <use xlink:href="#NotoSansCJKjp-Regular-3d" x="400"/>
      <use xlink:href="#NotoSansCJKjp-Regular-32" x="455.499985"/>
     </g>
    </g>
    <g id="line2d_33">
     <path d="M 65.645 54.158594 
L 85.245 54.158594 
L 104.845 54.158594 
" style="fill: none; stroke: #4c78a8; stroke-width: 2.8; stroke-linecap: square"/>
    </g>
    <g id="text_18">
     <!-- 惩罚系数=5 -->
     <g transform="translate(116.045 59.058594) scale(0.14 -0.14)">
      <defs>
       <path id="NotoSansCJKjp-Regular-35" d="M 1677 -83 
C 2464 -83 3213 499 3213 1523 
C 3213 2560 2573 3021 1798 3021 
C 1517 3021 1306 2950 1094 2835 
L 1216 4192 
L 2982 4192 
L 2982 4691 
L 704 4691 
L 550 2502 
L 864 2304 
C 1133 2483 1331 2579 1645 2579 
C 2234 2579 2618 2182 2618 1510 
C 2618 826 2176 403 1619 403 
C 1075 403 730 653 467 922 
L 173 538 
C 493 224 941 -83 1677 -83 
z
" transform="scale(0.015625)"/>
      </defs>
      <use xlink:href="#DroidSansFallback-60e9"/>
      <use xlink:href="#DroidSansFallback-7f5a" x="100"/>
      <use xlink:href="#DroidSansFallback-7cfb" x="200"/>
      <use xlink:href="#DroidSansFallback-6570" x="300"/>
      <use xlink:href="#NotoSansCJKjp-Regular-3d" x="400"/>
      <use xlink:href="#NotoSansCJKjp-Regular-35" x="455.499985"/>
     </g>
    </g>
    <g id="line2d_34">
     <path d="M 65.645 75.508594 
L 85.245 75.508594 
L 104.845 75.508594 
" style="fill: none; stroke: #54a24b; stroke-width: 2.8; stroke-linecap: square"/>
    </g>
    <g id="text_19">
     <!-- 惩罚系数=8 -->
     <g transform="translate(116.045 80.408594) scale(0.14 -0.14)">
      <use xlink:href="#DroidSansFallback-60e9"/>
      <use xlink:href="#DroidSansFallback-7f5a" x="100"/>
      <use xlink:href="#DroidSansFallback-7cfb" x="200"/>
      <use xlink:href="#DroidSansFallback-6570" x="300"/>
      <use xlink:href="#NotoSansCJKjp-Regular-3d" x="400"/>
      <use xlink:href="#NotoSansCJKjp-Regular-38" x="455.499985"/>
     </g>
    </g>
   </g>
  </g>
 </g>
 <defs>
  <clipPath id="pa687a0fb68">
   <rect x="53.045" y="13.965469" width="498.51" height="317.94"/>
  </clipPath>
 </defs>
</svg>
